<?xml version="1.0" encoding="UTF-8" standalone="no"?>
<svg
   xmlns:dc="http://purl.org/dc/elements/1.1/"
   xmlns:cc="http://creativecommons.org/ns#"
   xmlns:rdf="http://www.w3.org/1999/02/22-rdf-syntax-ns#"
   xmlns:svg="http://www.w3.org/2000/svg"
   xmlns="http://www.w3.org/2000/svg"
   version="1.1"
   id="svg2"
   viewBox="0 0 100 48.000001"
   height="48"
   width="100">
  <defs
     id="defs4" />
  <metadata
     id="metadata7">
    <rdf:RDF>
      <cc:Work
         rdf:about="">
        <dc:format>image/svg+xml</dc:format>
        <dc:type
           rdf:resource="http://purl.org/dc/dcmitype/StillImage" />
        <dc:title></dc:title>
      </cc:Work>
    </rdf:RDF>
  </metadata>
  <g
     transform="translate(0,-1004.3622)"
     id="layer1">
    <g
       id="text3338"
       style="font-style:normal;font-variant:normal;font-weight:normal;font-stretch:normal;font-size:40px;line-height:125%;font-family:Againts;-inkscape-font-specification:Againts;letter-spacing:0px;word-spacing:0px;writing-mode:lr-tb;fill:#ffffff;fill-opacity:1;stroke:none;stroke-width:1px;stroke-linecap:butt;stroke-linejoin:miter;stroke-opacity:1">
      <path
         id="path4136"
         style=""
         d="m 28.233438,1009.5578 q 0,0.12 -0.04,0.16 l -0.04,-0.04 q -0.12,-0.08 -0.2,0 -0.04,0.04 -0.16,0.04 0.04,-0.08 0.04,-0.16 0,-0.04 -0.08,-0.12 -0.04,0.08 0,0.24 0,0.04 -0.08,0.12 0.04,0 0.04,0.04 0.04,0 0.08,0 -0.04,0.08 -0.12,0.16 l 0,0.12 0.08,0 q 0.08,-0.08 0.04,0 0,0.04 0.04,0.04 0.24,0.2 0,0.36 -0.08,0.08 0.04,0.28 0,-0.08 0,-0.12 0.04,-0.04 0.04,-0.12 0.16,0.08 0.2,0.16 l 0,0.24 q -0.12,0 -0.24,0.08 0,0.04 0.04,0.08 -0.04,0 -0.04,0 0,-0.04 -0.04,-0.04 l -0.04,0 q 0,-0.12 -0.12,-0.12 -0.04,0.08 0,0.16 0.08,0.04 0,0.12 -0.04,0.04 -0.16,0.04 l -0.16,0.16 q 0,0.08 0,0.2 0.04,0.08 -0.04,0.16 -0.08,0 -0.08,-0.08 0,-0.08 -0.08,-0.04 0.04,0.08 0.04,0.24 -0.08,0 -0.16,0.04 -0.04,0 -0.12,0 -0.08,0.08 0,0.12 0.08,0 0.12,0.08 0,0.12 0.12,0 0.04,-0.12 0.2,0.04 0,-0.08 0.04,-0.08 0,0.04 0,0.08 0.04,0 0.04,0.04 0.08,0 0.24,-0.08 0.08,0.04 0.08,0.24 l -0.08,0 q 0,0.16 -0.12,0.28 -0.04,0.04 -0.16,0.24 -0.04,0.12 0.08,0.16 0.04,0 0.08,0.04 0,0.12 -0.04,0.2 -0.08,-0.16 -0.12,-0.2 -0.12,0 -0.2,-0.04 0,0 -0.04,-0.04 -0.04,-0.08 -0.08,-0.04 -0.04,0 -0.04,0.04 -0.08,0.08 -0.08,0.16 -0.04,0.08 0.04,0.2 0.04,-0.08 0.12,-0.16 0.08,0.04 0.16,0.12 0,0.16 -0.04,0.32 0,0.12 -0.08,0.28 0.08,0.04 0.12,0.04 0.04,0 0.12,0.04 -0.08,0.08 -0.16,0.04 -0.04,-0.04 -0.12,0.04 -0.16,0.16 -0.08,0.24 l -0.28,0 q -0.04,0.08 -0.04,0.12 0.04,0 0.12,0.16 l 0.32,0 q -0.08,0.08 -0.08,0.2 0,0.12 -0.08,0.2 -0.08,0.08 -0.24,0.32 -0.12,0.12 -0.16,0.12 -0.16,0.04 -0.16,0.08 0,0 -0.04,0.12 0,0.12 -0.08,0.2 -0.08,0.2 0.04,0.36 l 0.04,0.04 q -0.24,0.04 -0.24,0.32 0.04,0.12 -0.04,0.16 -0.04,0.08 -0.08,0.12 0,0 -0.04,0.08 -0.04,0.04 -0.04,0.16 0.04,0.08 -0.04,0.16 -0.12,0.08 -0.12,0.24 0,0.16 -0.08,0.2 -0.12,0.08 -0.12,0.16 0,0.08 -0.04,0.08 0,0.08 -0.04,0.12 l 0,0.08 q -0.16,0.16 -0.04,0.32 -0.08,0.08 -0.12,0.16 0,0.08 -0.08,0.16 l 0,0.08 q 0,0.16 -0.08,0.24 -0.04,0 -0.04,0.2 0.04,0.2 -0.04,0.28 -0.04,0.08 -0.16,0.16 -0.16,0.08 -0.12,0.2 0.08,0 0.08,-0.04 0,0.04 -0.12,0.08 0.32,0.08 0.4,0.08 0.04,0.16 -0.08,0.36 0,0.04 -0.08,0.04 -0.08,0 -0.2,0.04 -0.08,0 -0.16,0 0,-0.08 -0.08,-0.12 0.04,0.2 0.04,0.24 0,0.04 0.08,0.12 0.04,-0.04 0.12,-0.2 0.04,0 0.12,0.08 l -0.12,0.12 q -0.04,0.04 -0.04,0.08 l 0,0.04 q 0.12,0.16 -0.04,0.32 l 0.12,0.12 q -0.12,0.24 -0.4,0.12 0.08,0.16 0.08,0.24 -0.12,0.12 -0.12,0.12 0.04,0.12 -0.16,0.2 l 0,0.16 q 0.04,0 0.04,0.04 0.04,0 0.12,0 -0.04,0.08 -0.08,0.16 0,0.08 -0.08,0.16 0,0 0,0.08 -0.24,0.08 -0.24,0.28 l 0.12,0.24 q 0.04,0.04 0.08,0.08 0.04,0 0.08,0.04 -0.04,0.08 -0.08,0.08 -0.04,-0.04 -0.12,0 0.04,0.04 0.12,0.04 0.04,0.04 0.16,0.04 l -0.08,0.08 q -0.04,0.04 0,0.16 0.12,0.08 -0.04,0.16 -0.08,0.04 -0.12,0.04 -0.04,0 -0.12,0.04 -0.08,-0.04 0.08,-0.2 -0.04,-0.08 -0.12,-0.16 -0.16,0.16 -0.2,0.28 0,0.12 0.04,0.2 0,0.08 0.04,0.04 0.04,-0.04 0.12,0 0.08,0.08 0,0.12 -0.04,0.04 -0.04,0.12 -0.08,-0.04 -0.08,-0.04 0,-0.04 -0.04,-0.08 -0.12,0.04 -0.12,0.12 0.04,0.04 0,0.12 -0.04,-0.04 -0.04,-0.16 l -0.04,0 q 0,0.16 -0.04,0.24 0.08,0.04 0.12,0.04 0.04,0 0.12,0.04 l 0,0.12 q -0.04,0.16 0.04,0.32 0.08,0.08 0,0.16 0,0.04 -0.08,0.2 -0.08,-0.04 -0.12,-0.04 -0.04,0 -0.08,-0.04 -0.08,-0.08 -0.2,0.04 0,0.08 0.08,0.08 0.08,0 0.04,0.08 0,0.04 -0.04,0.08 0,0.04 0,0.12 l -0.12,0 q 0,0 0.16,0.08 -0.08,0.08 -0.16,0.12 -0.08,0 0,0.12 0.04,-0.12 0.12,-0.12 0.12,-0.04 0.16,-0.16 0,0.04 0.04,0.04 l 0,0.2 q 0.04,0 0.12,0.08 0.04,0.04 -0.04,0.12 -0.04,0.04 -0.04,0.08 0.04,0.04 0,0.12 -0.08,-0.08 0,-0.2 -0.08,0 -0.12,-0.04 -0.04,-0.08 -0.12,0 l 0,0.08 q 0,0.12 0.04,0.16 -0.04,-0.04 -0.08,-0.04 0,0 -0.04,-0.04 -0.08,0.16 -0.08,0.16 l -0.12,0 q 0,0 -0.08,0.08 l 0,0.04 q 0.12,0 0.12,0 0.04,0 0.12,-0.04 -0.04,0.2 -0.08,0.36 -0.04,0.16 -0.12,0.32 0.24,0.08 0.32,0.12 l 0.04,-0.04 q -0.08,-0.08 -0.12,-0.12 0,-0.04 -0.08,-0.12 0.16,-0.04 0.4,-0.12 0.04,0.04 0.04,0.12 -0.08,0.08 -0.08,0.2 0,0.12 -0.04,0.24 0,0.08 -0.04,0.12 0,0 0,0.04 -0.12,-0.08 -0.12,-0.16 0.04,-0.08 -0.04,-0.12 -0.04,0.08 -0.08,0.16 0,0.08 -0.04,0.16 l -0.12,-0.12 -0.08,0 q -0.08,0 -0.08,0.08 0.08,0.24 -0.04,0.52 0,0.12 0.08,0.12 l 0.16,0 q 0,0.2 0.04,0.4 0.04,0.16 -0.12,0.36 l -0.28,0 q 0,-0.16 0.16,-0.2 -0.04,-0.12 -0.08,-0.24 0,-0.12 -0.08,-0.2 -0.04,0.04 -0.08,0.08 -0.04,0 -0.12,0.08 0.08,0 0.08,0.04 0.04,0 0.08,0 -0.04,0.08 -0.04,0.2 0,0.08 -0.04,0.16 0,0.24 -0.04,0.36 0,0 -0.08,0.08 l -0.04,0.04 q 0.08,0 0.12,0.04 -0.16,0.16 -0.04,0.44 -0.32,0 -0.48,0.04 l 0,0.04 q 0.08,0 0.12,0 0.08,-0.04 0.16,0 0.16,0 0.2,0.08 0.08,-0.08 0.12,-0.08 0.08,0 0.04,0.12 -0.04,0.08 -0.08,0.16 0,0.04 -0.08,0.08 l 0,-0.12 -0.2,0 q -0.04,0.04 -0.04,0.08 0,0.04 -0.04,0.12 0,0.04 -0.12,0.16 -0.08,0.04 -0.12,0.08 0,0.04 -0.08,0.08 0.04,0.08 0.04,0.12 0,0 0.04,0.08 0,0 -0.08,0.16 l -0.12,-0.12 q 0,0 -0.16,0.08 0.04,0.08 0.04,0.12 0.04,0 0.08,0.08 l 0,0.2 q 0,0.04 0.04,0.04 0.04,-0.04 0.04,0 0.08,0.08 0.2,0 0.08,0 0.12,0.04 l 0,0.08 q -0.04,0.16 -0.16,0.24 -0.08,0.08 -0.16,0.2 -0.08,0.08 -0.12,0.16 0.16,0.08 0.2,0.04 0,0 0.08,0.04 -0.08,0.08 -0.12,0.16 -0.04,0.08 -0.16,0.04 l -0.12,-0.12 q 0.04,-0.04 0.12,-0.2 -0.12,0.04 -0.2,0.04 -0.08,0.04 -0.08,0.12 0.04,0.08 -0.08,0.04 0.04,-0.08 0,-0.2 -0.08,-0.16 0.12,-0.24 l 0.12,0 q -0.08,-0.08 -0.12,-0.04 -0.04,0.04 -0.08,0 -0.08,0 -0.08,-0.08 0,-0.08 -0.08,-0.04 0,0.08 -0.04,0.12 0,0.04 0.04,0.12 0.08,0.08 0,0.16 -0.08,0.12 -0.04,0.24 0.08,0.08 0.12,0.16 0,0.12 0.08,0.04 0.08,0 0.12,-0.04 -0.08,0.12 -0.08,0.12 -0.12,-0.04 -0.12,0.12 l 0,0.08 q -0.04,0 -0.08,0 -0.04,-0.04 -0.08,-0.04 l 0,0.28 q 0,0.04 0.04,0.08 0.04,0.04 0.12,-0.04 0,0 0.04,-0.04 0.04,0.24 -0.12,0.36 -0.08,0.04 -0.08,0.08 0,0 -0.08,0.04 0.08,0.08 0.12,0.08 0.04,-0.04 0.12,-0.04 0,0 0.2,0 -0.08,0.08 -0.12,0.2 0,0.12 -0.08,0.2 0,0.04 -0.04,0.04 0,0 0,0.04 -0.12,0.12 -0.12,0.24 0,0.12 -0.16,0.2 l 0.04,0 -0.04,0.04 0,-0.04 q 0,0 -0.08,-0.04 0,0.12 -0.04,0.16 -0.04,0 -0.08,0 -0.04,-0.04 -0.08,-0.04 -0.12,-0.04 -0.16,0.08 0.08,-0.04 0.24,-0.04 -0.04,0.08 -0.12,0.16 l 0.24,0 q -0.04,0.08 -0.04,0.12 0,0 -0.04,0.08 -0.12,0.08 0,0.12 0.04,0 0.08,0.04 -0.04,0.16 -0.28,0.2 0.04,0.08 0.04,0.12 0,0.04 0.04,0.12 l 0,0.04 q 0.04,0.08 -0.04,0.28 -0.04,0.16 -0.12,0.2 l -0.08,0 q 0.04,-0.04 0.04,-0.04 0,-0.04 0.04,-0.08 -0.08,0 -0.12,0.04 -0.04,0 -0.08,0 l 0,0.12 0.12,0 q 0.04,0.04 0.04,0.08 -0.08,0.4 -0.16,0.6 -0.08,0.08 -0.08,0.16 0,0.16 -0.2,0.28 0.12,0.16 0,0.28 -0.04,0 -0.04,0.04 0.04,0.04 0,0.04 -0.08,0.12 -0.24,0.28 -0.04,0.08 -0.12,0.12 l 0,0.2 q 0.08,-0.04 0.12,-0.04 0.04,0 0.12,-0.04 -0.04,0.08 -0.12,0.12 -0.04,0 0,0.08 -0.04,0 -0.08,0.04 0,0 -0.04,0 -0.12,0 -0.12,0.12 -0.12,0 -0.16,0.04 l 0.04,0.04 0.08,0 q 0.04,0.2 -0.24,0.28 0.16,0.16 0.2,0.24 0.04,0.08 0.04,0.24 l 0,0.16 q -0.08,0.04 -0.12,0.04 0,0 -0.08,0.04 0,0.04 0.08,0.04 l 0.12,0 0,0.04 -0.16,0 q -0.28,0 -0.2,0.28 l 0.04,0 q -0.08,0.08 -0.08,0.16 0,0.04 -0.04,0.04 -0.08,0.08 -0.12,0.12 -0.04,0 -0.04,0.08 0.08,0 0.12,0.04 0.04,0 0.12,0 -0.08,0.12 -0.16,0.08 -0.04,-0.04 -0.12,-0.04 -0.04,0 -0.28,-0.08 -0.04,0.08 0,0.12 0.04,0 0.24,0.04 -0.04,0 -0.12,0.08 0.08,0 0.12,0.04 0.04,0 0.12,-0.04 0,0 0.04,0.04 0.04,0 0.04,0.04 0,0 -0.04,0.04 -0.08,-0.04 -0.16,0 -0.08,0 -0.16,-0.04 -0.16,0 -0.16,0 -0.04,0 -0.08,0.04 0,0 -0.04,0 -0.16,0.04 -0.56,0.04 0.04,0.08 0.2,0.08 l 0.2,0 0.08,0 q 0.08,0 0.12,0.04 0.08,0 0.12,0 0.04,-0.04 0.12,-0.04 0,0.24 -0.12,0.32 -0.04,0.04 0,0.2 0.24,0.24 0.08,0.44 -0.12,0.32 -0.12,0.56 -0.08,0.08 -0.24,0.16 0.12,0.16 0,0.24 -0.08,0.08 -0.16,0.16 0.08,0 0.08,0.04 0.04,0 0.12,0 -0.08,0.08 -0.16,0.12 -0.08,0 -0.16,0.08 -0.04,0 -0.04,0.04 0,0.08 0.08,0 0.08,-0.08 0.08,0.08 -0.08,0 -0.16,0 -0.04,0.04 -0.12,0.04 0,0.08 0.12,0.12 0,0.08 -0.08,0.12 -0.04,0.08 0.04,0.16 -0.08,0.04 -0.12,0.04 -0.04,0 -0.12,0.04 l 0.12,0.48 0.04,0 q 0,0 0.08,0.04 0,0 0.08,0.04 l 0.12,0.12 q 0.08,0.08 0,0.16 -0.16,-0.08 -0.2,-0.08 0,-0.04 0.12,-0.12 -0.08,0 -0.12,-0.04 -0.04,0 -0.12,0 l 0,0.24 -0.08,0 q -0.12,-0.12 -0.28,-0.04 l -0.12,0 -0.4,0 q 0,-0.04 0,-0.08 0.04,0 0.04,-0.04 -0.16,-0.08 -0.16,0.04 0,0.12 0.04,0.16 0.12,0.12 0.12,0.16 l 0.04,0 q 0.04,0 0.04,0 0,0.04 0.04,0.04 -0.16,0.08 -0.2,0.08 -0.04,0 -0.12,-0.08 0.04,0 0.04,-0.04 0.04,0 0.12,0 -0.16,-0.16 -0.2,-0.24 l -0.12,0.12 q 0.12,0.08 0.08,0.16 -0.04,0.08 -0.08,0.16 0.04,0.04 0.08,0.04 0.04,0.04 0.08,0.12 0,0.04 0.16,0.04 0.08,0 0.12,-0.04 0.04,0 0.12,0 0,0.08 0.04,0.12 0.04,0.04 0.04,0.12 -0.04,0.08 -0.2,0.08 l 0,0.08 q 0.08,0.04 0.16,0.2 l 0,0.04 q -0.2,0.2 -0.48,0.12 0.08,-0.08 0.08,-0.16 -0.04,-0.04 -0.08,-0.04 0,0 -0.04,-0.04 -0.04,0.04 -0.04,0.04 0,0.04 -0.04,0.08 -0.08,0.04 -0.12,-0.04 0,-0.04 -0.04,0 -0.08,0.08 -0.16,0.08 l -0.12,-0.12 q 0.08,-0.08 0.04,-0.2 -0.04,-0.08 -0.08,-0.16 0.16,0 0.16,0.08 -0.04,0.12 0.04,0.12 0.08,0.04 0.16,0.08 l 0.04,0 q 0.04,-0.04 0.04,-0.08 0,0 0.04,-0.04 0.04,0 0.04,0 0.04,0.04 0.12,0.04 0.04,0 0.04,-0.04 l 0,-0.08 -0.12,-0.12 q -0.04,0.04 -0.08,0.04 0,0 -0.08,0.08 0.08,-0.24 0.08,-0.32 l -0.08,0 q -0.08,-0.08 -0.2,-0.08 -0.04,0 -0.08,0.04 -0.04,0.04 -0.12,0.08 0.04,-0.08 0.04,-0.16 -0.08,0 -0.12,0 0,0.04 -0.08,0.04 0.04,0.08 0.04,0.08 0.04,0.04 0.08,0.12 -0.12,0.12 -0.2,0.12 -0.16,0 -0.04,0.2 0,0 0.08,0.08 -0.04,0.04 -0.08,0.04 0,0 -0.04,0.04 0.08,0.24 0.08,0.28 -0.2,0.12 0,0.24 0,0 0.08,0.08 0,0.04 0.08,0.12 0.04,-0.04 0.08,-0.08 0.04,0 0.08,-0.04 0.04,0.08 0.04,0.2 0.08,0 0.12,0 0.04,0.04 0.12,0.04 -0.2,0.2 -0.4,0.16 0,-0.16 -0.16,-0.16 0,0.08 -0.08,0.24 0,0.08 0,0.12 0,0.08 0.12,0.12 -0.04,0 -0.04,0.04 0.04,0.08 0.08,0.12 0.04,0.04 0.08,0.12 -0.08,0.08 -0.16,0.12 0.04,0 0.04,0 0,0.04 0.04,0.04 -0.04,0.04 -0.04,0.12 l 0.04,0.04 q 0.16,-0.04 0.2,0.08 0,0.04 0,0.04 0.04,0 0.04,0.04 -0.08,0.16 -0.08,0.16 -0.08,0.16 -0.2,0.08 -0.04,-0.04 -0.08,0 -0.04,0.08 -0.04,0.16 0,0.08 0,0.12 0.04,0.04 0.04,0.12 -0.08,0.12 -0.08,0.16 0.04,0.04 0.2,0.12 0,-0.12 0,-0.12 0,-0.04 0.04,-0.08 0,-0.04 -0.04,-0.08 0.08,-0.08 0.16,-0.12 0.04,0.16 -0.12,0.32 0,0 0.08,0.08 0,0 0.04,0.04 0.08,-0.08 0.2,-0.04 0.04,-0.08 0.12,-0.12 0.08,-0.04 0.04,-0.12 0.08,-0.04 0.12,-0.04 0.08,0 0.16,-0.04 -0.08,0.08 -0.08,0.08 0,0.04 -0.04,0.08 -0.12,0.12 -0.16,0.28 0,0.08 -0.04,0.12 0,0.04 0,0.12 -0.04,0.08 -0.08,0.16 -0.04,0.08 -0.08,0.16 -0.04,0.12 -0.08,0.2 -0.04,0.12 -0.12,0.28 0,0 -0.08,-0.04 -0.04,0 -0.08,-0.04 -0.16,0.04 -0.16,-0.16 -0.04,-0.2 -0.04,-0.4 0,-0.16 -0.04,-0.36 -0.04,-0.2 -0.08,-0.4 -0.04,-0.16 -0.08,-0.36 0,-0.04 -0.04,-0.08 0,0 0,-0.04 0,-0.32 -0.04,-0.44 -0.04,-0.08 -0.04,-0.28 0,-0.08 -0.04,-0.2 0,-0.08 0,-0.16 l 0,-0.4 q 0,-0.04 -0.04,-0.08 0,-0.04 0,-0.08 l 0,-0.56 q -0.04,-0.16 -0.04,-0.32 0,-0.16 0,-0.32 0,-0.12 0,-0.24 0.04,-0.12 0.04,-0.24 -0.04,-0.12 0,-0.24 0.04,-0.12 0.04,-0.2 0.04,-0.24 0.04,-0.52 0.04,-0.24 0.04,-0.48 0,-0.04 0.04,-0.08 0.08,-0.12 0.08,-0.24 0,-0.12 0.04,-0.24 0.04,-0.08 0.04,-0.2 0,-0.12 0.04,-0.24 0,-0.04 0,-0.04 0.04,-0.04 0.04,-0.08 0,0 0.04,-0.08 0,-0.12 0.04,-0.24 0.08,-0.12 0.08,-0.24 0.04,-0.2 0.04,-0.32 0.04,-0.16 0.08,-0.36 0,0 0.08,-0.16 -0.08,-0.08 0,-0.16 0.08,-0.12 0,-0.28 0,-0.12 0.04,-0.24 0.04,-0.12 0.04,-0.28 0.04,-0.12 0.04,-0.24 0.04,-0.16 0.08,-0.28 0.04,-0.2 0.12,-0.52 0.04,-0.2 0.08,-0.36 0.08,-0.2 0.08,-0.4 0,-0.04 0,-0.04 0.04,0 0.04,-0.04 0.04,-0.08 0.04,-0.12 0,-0.04 0.04,-0.12 l 0,-0.08 0.24,-0.72 q 0.08,-0.2 0.08,-0.36 0.04,-0.2 0.08,-0.4 0.08,-0.16 0.08,-0.28 0.04,-0.12 0.12,-0.28 0.08,-0.2 -0.04,-0.28 l 0.12,-0.24 q 0.04,-0.08 -0.08,-0.12 -0.08,-0.04 0,-0.12 l 0.12,0 q 0.04,-0.04 0.04,-0.04 0,-0.04 0.04,-0.08 l -0.12,-0.12 q 0,-0.04 0,-0.04 0.04,-0.04 0.04,-0.12 l 0.16,0 0.08,-0.08 q -0.04,-0.04 -0.08,-0.04 0,0 -0.04,-0.04 l 0,-0.08 q 0,-0.12 0.08,-0.16 0.12,-0.04 0.08,-0.2 l 0,-0.08 q 0.04,-0.08 0.04,-0.08 0,-0.04 0.04,-0.12 0,-0.12 0.04,-0.16 0.04,-0.08 0.04,-0.2 l 0,-0.12 q 0.16,-0.12 0.16,-0.4 l 0,-0.04 q 0.08,-0.08 0.12,-0.16 -0.04,-0.08 -0.08,-0.12 -0.04,-0.04 0,-0.12 0.04,0.04 0.12,0.04 0.04,-0.08 0.04,-0.2 -0.08,-0.08 0.04,-0.2 0.08,-0.08 0.04,-0.2 -0.04,-0.12 0.04,-0.16 0.12,-0.04 0.08,-0.16 0,-0.04 0,-0.04 0.04,-0.04 0.04,-0.08 0,-0.08 0,-0.12 0.04,-0.04 0.04,-0.12 0.04,-0.08 0.04,-0.12 0,-0.08 0.04,-0.16 0.04,-0.08 0.04,-0.16 0,-0.08 0.04,-0.16 0,-0.2 0.12,-0.2 0.08,-0.12 -0.08,-0.2 0.16,-0.04 0.28,-0.04 0.12,0 0.24,-0.04 -0.16,-0.04 -0.44,-0.04 0,-0.24 0.12,-0.28 0.08,-0.04 0,-0.2 -0.08,0.04 -0.16,0.08 -0.04,0 -0.12,0.08 -0.2,0.08 -0.32,0.2 -0.32,0.16 -0.48,0.12 -0.08,0 -0.12,0.04 0,0 -0.04,0 0.08,0 0.12,0.04 0.08,0 0.16,0 -0.12,0.2 -0.24,0.24 -0.08,0.08 -0.16,0.12 -0.08,0.04 -0.2,0.04 -0.16,0.12 -0.52,0.2 -0.04,0 -0.08,0.04 0,0.04 -0.08,0.08 -0.08,0.08 -0.2,0.12 -0.12,0 -0.2,0.08 -0.04,0.04 -0.24,0.04 0.04,0.04 -0.08,0.12 -0.08,0.04 -0.12,0.08 0,0.04 -0.08,0.08 -0.16,0.08 -0.28,0.16 -0.12,0.04 -0.32,0.08 -0.08,0 -0.16,0.04 -0.08,0 -0.16,0 -0.04,0.04 -0.04,0.08 0,0 -0.04,0.04 -0.16,0.16 -0.2,0.24 -0.16,0.24 -0.24,0.32 -0.04,0.04 -0.04,0.08 -0.12,0.12 -0.12,0.24 -0.08,0.32 -0.08,0.48 0.04,0.08 0,0.2 -0.04,0.12 -0.04,0.2 -0.04,0.08 -0.04,0.12 0,0.04 -0.04,0.12 l -0.12,0.6 q -0.04,0.16 -0.2,0.48 l 0,0.08 q 0,0.12 -0.08,0.36 0,0.12 -0.08,0.36 -0.04,0.08 -0.08,0.16 0,0.04 -0.08,0.04 l 0,0.28 q -0.04,0.12 -0.04,0.24 0,0.12 -0.08,0.24 l 0,0.2 q 0.08,0.2 -0.04,0.36 -0.04,0 -0.04,0.08 -0.04,0.2 -0.08,0.4 0,0.16 -0.04,0.36 0,0.12 -0.04,0.24 -0.04,0.08 -0.08,0.2 -0.04,0.16 -0.08,0.28 0,0.12 0,0.28 -0.04,0.12 -0.04,0.32 0.04,0.08 0,0.16 -0.04,0.04 -0.08,0.12 0,0.08 -0.04,0.16 -0.04,0.04 0,0.12 l 0,0.08 0,0.04 q -0.04,0.08 -0.08,0.2 -0.04,0.08 0,0.16 0,0.08 -0.08,0.16 0,0.04 -0.08,0.12 -0.08,0.2 -0.24,0.08 -0.04,0 -0.04,0 0,-0.04 -0.04,-0.04 -0.12,-0.04 -0.12,0.08 0.08,0.08 0.16,0.08 0.12,-0.04 0.2,-0.04 0.04,0.12 -0.08,0.12 -0.08,0.04 -0.2,0.04 -0.08,0 -0.2,0.04 0.16,0.04 0.28,0.04 0.12,-0.04 0.28,0.04 -0.12,0.08 -0.16,0.2 0,0.12 -0.08,0.24 -0.04,0.04 -0.04,0.08 0.04,0.04 0,0.12 0,0.2 -0.12,0.36 0,0.04 -0.04,0.04 l 0,0.16 q -0.08,0.16 -0.08,0.16 -0.12,0.2 -0.12,0.36 0,0.16 -0.16,0.08 0,-0.04 0.04,-0.04 0,-0.08 0.08,-0.24 l -0.04,0 q -0.08,0 -0.12,0.04 -0.08,0.08 0,0.12 0.08,0.08 0.08,0.08 -0.16,0 -0.16,0.12 0,0.08 -0.04,0.2 -0.04,0.08 -0.08,0.2 l 0.24,-0.24 0,0.04 0,0.08 q -0.16,0.16 -0.12,0.24 0,0.04 -0.08,0.2 l -0.04,-0.04 q -0.08,0.08 -0.12,0.08 0,0.04 0,0.04 0.04,0.04 0.04,0.12 l -0.16,0 q -0.08,0.2 -0.16,0.24 -0.04,0.08 -0.08,0.08 0,0.04 -0.04,0.12 0,0.12 -0.12,0.24 -0.08,0.08 -0.16,0.12 -0.04,0.08 -0.12,0.16 l -0.4,0.4 q -0.16,0.08 -0.2400003,0.08 -0.2,0.08 -0.36,0.08 -0.16,0.04 -0.32,0.08 -0.36,0.12 -0.64,0 -0.24,-0.04 -0.28,-0.32 0,-0.08 -0.04,-0.2 0,-0.08 0,-0.2 -0.04,-0.08 -0.04,-0.24 -0.04,-0.12 -0.12,-0.2 -0.04,-0.08 -0.12,-0.2 -0.08,-0.08 -0.08,-0.16 0,-0.24 -0.08,-0.36 -0.04,0 -0.04,-0.08 l 0,-0.52 0,-0.56 q 0.04,-0.2 0.04,-0.6 0,-0.16 0.04,-0.24 0,-0.16 0.04,-0.28 0,-0.12 0,-0.24 0,0 0.08,-0.08 0,-0.04 0,-0.08 -0.04,-0.04 -0.04,-0.08 0.08,-0.08 0.08,-0.2 -0.04,-0.12 0,-0.2 0,-0.16 0.04,-0.28 l 0,-0.2 0,-0.08 q 0.16,-0.36 0.16,-0.88 0.04,-0.2 0.12,-0.52 0.04,-0.16 0.08,-0.32 0.04,-0.16 0.08,-0.32 l 0,-0.04 q 0.08,-0.16 0.08,-0.28 0.04,-0.16 0.12,-0.32 l 0.12,-0.48 q 0,-0.08 0,-0.12 0.04,-0.04 0.04,-0.08 0.08,-0.24 0.08,-0.36 0.04,-0.2 0.12,-0.52 0.08,-0.16 0.16,-0.48 0.04,0 0.04,-0.04 0.12,-0.12 0.08,-0.28 0,-0.08 0.04,-0.12 0.04,-0.12 0.2,-0.36 0.12,-0.16 0.12,-0.44 -0.04,0 -0.08,0 0,-0.04 -0.04,-0.04 l -0.36,0 q -0.12,0 -0.16,0.04 -0.2,0.08 -0.36,0.16 -0.16,0.04 -0.36,0.12 -0.04,0 -0.2,0.08 -0.12,0.12 -0.24,0.08 0.08,-0.04 0.12,-0.04 0,-0.04 0.08,-0.08 -0.04,0 -0.04,-0.08 0,0 0.08,-0.04 0,0 -0.04,-0.08 -0.12,0.04 -0.2,0.08 -0.12,0 -0.24,0.04 -0.08,0.08 -0.08,0.12 l 0,0.12 q -0.08,-0.08 -0.08,-0.16 -0.04,-0.12 -0.12,-0.12 -0.12,0 -0.2,-0.08 0.24,-0.24 0.36,-0.4 l 0.08,0 q 0.32,0 0.6,-0.28 0.08,-0.16 0.2,-0.28 0,0 0.04,-0.04 l 0.36,-0.12 q 0.28,-0.2 0.56,-0.32 0.12,-0.04 0.28,-0.2 0,0.04 0.08,0.12 0,-0.04 0.08,-0.12 0.04,0.04 0.04,0.08 0,0 0.04,0.04 l 0.1200003,-0.12 q -0.08,-0.2 0.08,-0.36 0.08,-0.08 0.16,-0.16 0.08,-0.12 0.16,-0.2 0.04,-0.08 0.2,-0.16 0.08,-0.08 0.16,-0.12 0.08,-0.04 0.16,-0.12 0.04,-0.04 0.04,-0.08 0,-0.04 0.04,-0.08 0,-0.04 0.04,-0.04 0.12,-0.08 0.08,-0.16 -0.08,-0.16 -0.04,-0.32 0.04,-0.04 0.04,-0.12 -0.04,-0.12 0.04,-0.36 l 0,-0.08 q 0.04,-0.08 0.04,-0.12 0,-0.04 0.04,-0.08 0.16,-0.12 0.16,-0.24 0.04,-0.16 0.08,-0.32 0,-0.12 -0.04,-0.2 0,-0.12 0.08,-0.2 -0.04,-0.2 0,-0.32 0.04,-0.16 0.12,-0.32 0.04,-0.04 0,-0.04 0,-0.04 0.04,-0.08 l 0,-0.12 q 0.12,-0.16 0.04,-0.36 0.16,-0.16 0.16,-0.24 0,-0.08 -0.04,-0.12 0,-0.04 0.04,-0.12 0,-0.08 0.04,-0.08 0.04,-0.04 0.08,-0.12 l 0.12,-0.6 q 0,-0.24 -0.04,-0.32 -0.04,-0.08 0.04,-0.24 -0.04,-0.04 -0.04,-0.04 0,-0.04 -0.04,-0.08 l 0.12,-0.24 q 0.08,-0.16 0.16,-0.2 0.08,-0.16 0.08,-0.28 0,-0.2 0.04,-0.24 l 0,-0.08 q 0,-0.12 0.08,-0.2 0.12,-0.2 0.04,-0.32 0.08,-0.08 0.04,-0.16 0,-0.12 0.04,-0.24 0.04,-0.08 0.04,-0.2 0.04,-0.12 0.08,-0.2 0,0 0,-0.2 0,-0.04 0.08,-0.2 0.16,-0.28 0,-0.44 0.2,-0.2 0.12,-0.44 0,-0.04 0.04,-0.08 l 0,-0.08 q -0.04,-0.08 0,-0.16 0.08,-0.12 0.12,-0.2 0.04,0 0.04,-0.08 0,-0.16 0.04,-0.28 0.04,-0.16 0.08,-0.32 0.08,-0.32 0.08,-0.48 0.04,-0.2 0.04,-0.36 0.04,-0.16 0.08,-0.32 l 0,-0.08 q 0.04,-0.32 0.08,-0.56 0.08,-0.28 0.12,-0.56 0.08,-0.4 0.16,-0.76 0.08,-0.36 0.16,-0.76 0.04,-0.12 0.04,-0.2 0.04,-0.12 0.08,-0.24 0.04,-0.2 0.04,-0.4 0.04,-0.24 0.12,-0.44 0,-0.08 0.08,-0.24 0,-0.12 0.08,-0.36 0,-0.16 0.04,-0.24 0.04,-0.08 0.04,-0.12 0,-0.04 0.04,-0.12 0.08,-0.32 0.16,-0.44 0,-0.08 0.04,-0.08 0.04,0 0.12,-0.08 0.16,-0.28 0.4,-0.4 0.08,0.16 -0.04,0.24 -0.08,0.04 -0.08,0.2 0.04,0 0.04,-0.04 0.08,-0.08 0.16,-0.12 0.08,-0.08 0.16,-0.16 0.04,-0.12 0.2,0.04 0.16,-0.08 0.28,-0.04 0.16,0.04 0.36,0.08 0.04,0 0.08,0.04 0,0.04 0.04,0.08 0,0.08 -0.08,0.08 -0.2,0 -0.24,0.16 l -0.04,0 q -0.08,0.04 -0.08,0.12 0,0.16 -0.16,0.24 -0.08,0.08 -0.16,0.12 0,0 -0.16,-0.08 l -0.08,0 0,0.12 0.04,0.04 q -0.16,0.32 -0.24,0.44 0.12,0.08 0.24,0 0,-0.04 -0.04,-0.08 0.16,-0.08 0.12,-0.16 0,-0.04 0.04,-0.04 0.08,-0.04 0.16,-0.12 -0.04,0.12 -0.04,0.24 0,0.08 -0.04,0.16 l 0.16,0 q 0.2,0 0.08,0.2 -0.04,0.12 0,0.2 0.08,0.12 0.16,0.04 0,-0.04 -0.08,-0.2 0.16,0.04 0.4,0.12 0.04,0 0.12,0.08 0,0.08 0,0.16 0.04,0.04 0.04,0.12 0,0.2 0.08,0.32 0.12,0.36 0.28,0.68 0.08,0.08 0.16,0.08 0.08,0.08 0.2,0.08 0.24,0.08 0.24,0.28 0.04,0.08 0.04,0.12 0,0.04 0.04,0.12 l 0,0.04 q 0,0.2 -0.04,0.36 0,0.16 -0.04,0.36 0,0.08 -0.08,0.08 -0.04,0 -0.12,0.2 0,0.24 -0.04,0.36 0,0.28 -0.08,0.4 l 0,0.08 0,0.12 q -0.08,0.16 -0.08,0.28 -0.08,0.36 0.04,0.68 0,0.08 -0.04,0.12 -0.08,0.08 -0.08,0.2 0,0.08 0,0.2 0.04,0.08 -0.04,0.16 l 0,0.04 q 0,0.16 -0.04,0.28 -0.04,0.12 -0.08,0.24 0,0.08 0,0.08 0.04,0.08 0,0.2 -0.04,0.08 -0.08,0.16 0,0.04 -0.04,0.08 0,0 0,0.08 0,0.12 -0.08,0.12 l 0,0.04 q -0.08,0.2 -0.16,0.36 -0.04,0.16 -0.12,0.36 l 0,0.16 q 0,0.04 -0.04,0.04 -0.04,0 0,0.08 0.04,0.08 -0.04,0.16 -0.04,0.2 -0.08,0.36 0,0.16 -0.08,0.36 -0.08,0.16 0,0.28 0,0.04 -0.08,0.28 -0.08,0.08 -0.16,0.32 -0.04,0.04 -0.04,0.2 0.08,0.08 0,0.28 -0.08,0.2 -0.12,0.36 0,0.16 -0.04,0.36 0,0.08 -0.04,0.12 -0.12,0.28 -0.2,0.6 l -0.12,0.36 q 0,0.08 -0.04,0.2 0,0.12 0,0.24 0,0.04 0,0.08 0.04,0 0.04,0.04 0.08,-0.08 0.16,-0.08 0.08,-0.04 0.16,-0.08 0.16,-0.08 0.28,-0.16 0.12,-0.08 0.28,-0.16 0.16,-0.04 0.32,-0.16 0.08,-0.04 0.12,-0.04 0.04,0 0.12,-0.04 0.04,-0.04 0.04,-0.04 0.04,0 0.08,-0.04 0.24,-0.08 0.32,-0.16 0.2,-0.08 0.32,-0.12 0.16,-0.04 0.32,-0.12 0.04,0 0.04,0 0.04,-0.04 0.08,-0.04 0.12,-0.08 0.24,-0.12 0.16,-0.04 0.32,-0.12 0.28,-0.12 0.6,-0.2 0.12,-0.08 0.24,-0.08 0.12,0 0.24,-0.04 0.08,-0.04 0.12,-0.08 0.04,-0.04 0.12,-0.12 0.08,-0.12 0.12,-0.24 0.04,-0.16 0.12,-0.28 0.08,-0.24 0.08,-0.32 0.08,-0.16 0.08,-0.16 0.04,-0.12 0.08,-0.24 0.08,-0.12 0.08,-0.24 0,-0.12 0.08,-0.28 0,-0.04 0,-0.04 0.04,0 0.04,-0.04 -0.08,-0.08 -0.04,-0.16 0.08,-0.12 0.04,-0.2 l 0,-0.2 0,-0.08 q 0.04,-0.08 0.12,-0.32 0.08,-0.16 0.08,-0.28 0,-0.12 0.04,-0.2 0.08,-0.08 0.08,-0.16 0.04,-0.16 0.04,-0.32 0.04,-0.16 0.08,-0.36 0.04,-0.08 0.04,-0.2 0.04,-0.12 0.08,-0.2 0.04,-0.16 0.04,-0.28 0,-0.16 0.04,-0.28 l 0,-0.2 q 0.04,-0.08 0.04,-0.08 0,-0.04 0.04,-0.12 0.04,-0.2 0.12,-0.52 0.08,-0.24 0.08,-0.36 0.08,-0.4 0.12,-0.56 l 0.12,-0.36 0,-0.12 0,-0.08 q 0.08,-0.12 0.08,-0.28 0,-0.16 0.08,-0.28 0,-0.04 0.12,-0.16 -0.08,-0.12 0,-0.24 0.04,-0.12 0.04,-0.32 0,-0.16 0.08,-0.2 0,-0.04 0,-0.04 0.04,-0.04 0.04,-0.08 -0.04,-0.2 0.08,-0.44 0.04,-0.16 0,-0.28 0,0 0,-0.08 l 0,-0.04 q 0.12,-0.08 0.08,-0.16 0,-0.08 0.04,-0.16 l 0,-0.12 q 0.08,-0.08 0.04,-0.12 0,-0.04 0,-0.12 0,-0.04 0,-0.04 0.04,-0.04 0.04,-0.08 0.12,-0.16 0.12,-0.32 0,0 0,-0.12 0.08,-0.2 0,-0.32 -0.12,-0.12 0.04,-0.2 0.04,-0.04 0.04,-0.12 0,-0.12 0.04,-0.2 0.08,-0.2 0.04,-0.32 -0.04,-0.08 0,-0.12 0.04,-0.08 0.08,-0.16 0.08,-0.24 0.08,-0.32 l 0,-0.08 q 0.08,-0.04 0.08,-0.2 -0.08,-0.12 0,-0.28 -0.04,-0.12 0,-0.2 0.08,-0.12 0.12,-0.2 0.08,-0.12 0,-0.2 0.08,-0.12 0.04,-0.24 -0.04,-0.12 0.04,-0.24 0.04,-0.08 0.04,-0.2 -0.08,-0.16 0.08,-0.2 -0.08,-0.24 0,-0.32 0.04,-0.04 0.04,-0.08 0,-0.12 0,-0.2 0.04,-0.12 0.04,-0.24 0,-0.04 0,-0.04 0.04,-0.04 0.04,-0.08 0.08,-0.16 0.08,-0.16 0,-0.08 0,-0.08 0.04,-0.04 0.04,-0.12 0,-0.04 0,-0.08 0,-0.08 0.08,-0.16 0.16,-0.24 0.08,-0.4 0,-0.12 0.08,-0.16 0.08,-0.08 0.08,-0.28 0.04,-0.12 0,-0.2 0,-0.12 0.12,-0.2 -0.04,-0.08 0,-0.08 0.08,-0.04 0.04,-0.12 0,-0.04 0,-0.04 0.04,-0.04 0.04,-0.08 0,-0.04 -0.04,-0.04 0,-0.04 0,-0.12 0.08,0 0.08,0.04 0.04,0 0.08,0 0,-0.04 0,-0.04 0.04,-0.04 0.04,-0.08 -0.04,-0.04 -0.12,-0.04 l 0,-0.04 q 0.08,-0.16 0.16,-0.32 0.08,-0.16 0.16,-0.32 l 0.04,0 0,0.2 q 0.12,0 0.12,0 l 0.04,0 q 0.04,-0.08 0.08,-0.12 0.04,-0.04 0.08,-0.12 -0.08,-0.04 -0.12,0.04 -0.04,0.04 -0.08,-0.04 0.08,-0.04 0.12,-0.08 0.08,-0.04 0.16,0.04 0,0 0.08,-0.04 0.28,-0.2 0.72,-0.04 0.12,0.04 0.32,0.24 0.12,0.12 0.24,0.08 0.08,-0.04 0.12,-0.04 0.08,0 0.16,-0.04 l 0.12,0 q 0.08,-0.04 0.2,-0.04 l 0,0.16 q 0.08,0.04 0.12,0.04 0.04,0 0.08,0.04 0.04,0.04 -0.04,0.08 -0.04,0.04 0.04,0.12 0.08,-0.08 0.12,-0.16 0.04,0.08 0.08,0.12 0.04,0.04 0.08,0.12 0,0.08 -0.08,0.12 -0.08,0 -0.08,0.08 0.16,0.08 0.28,0.04 0.12,-0.08 0.24,-0.04 -0.04,0.08 -0.12,0.08 -0.04,0 -0.08,0.04 l 0,0.32 q 0.12,0.04 0.16,-0.04 0.04,-0.12 0.12,-0.16 0.04,0.04 0.04,0.16 0.04,0.48 0.24,0.96 0.08,0.12 0.08,0.24 0,0.12 0.04,0.24 z m -11.24,10.72 q 0,0.12 0.04,0.12 l 0.04,-0.04 q 0.08,-0.16 -0.08,-0.08 z m -0.08,0.52 0,0.08 0.08,-0.08 q -0.04,0 -0.04,0 0,-0.04 -0.04,-0.04 l 0,0.04 z m -8.5600003,22.8 q 0,-0.04 0.04,-0.08 l -0.04,0 q -0.04,0 -0.04,0.08 l 0.04,0 z m 0.24,0.12 -0.08,0 0,0.04 0.08,0 0,-0.04 z m 0.16,-0.24 q -0.08,0 -0.12,0 0,0.04 -0.04,0.04 0.04,0.08 0.04,0.12 0.04,0.04 0.12,0.12 l 0,-0.28 z m 0.56,-2.6 0.2,0 q -0.08,-0.04 -0.2,-0.04 l 0,0.04 z m -0.32,3.16 q 0.08,-0.08 0.04,-0.12 0,0 0,-0.08 l 0,-0.24 -0.08,0 q -0.12,0.12 -0.04,0.16 0.04,0.08 0,0.08 0,0.04 0.04,0.12 0,0 0.04,0.08 z m 0.12,0.24 q 0.04,0 0.08,-0.04 l -0.08,0 0,0.04 z m 0.04,0.48 q 0.08,-0.08 0.16,-0.12 -0.16,-0.04 -0.16,0.12 z m 0.04,-1.2 q 0.04,0.04 0.08,0.04 0.04,0 0.08,0.04 -0.04,-0.04 -0.08,-0.08 0,-0.04 -0.08,0 z m 0.2,0.36 q -0.08,0.2 0.12,0.28 -0.04,-0.08 -0.04,-0.16 0,-0.08 -0.08,-0.12 z m -0.04,-4.28 q 0.08,0 0.2,-0.04 -0.12,-0.12 -0.2,0.04 z m 0.48,1.24 q -0.08,-0.08 -0.08,-0.08 -0.08,0 -0.16,0.08 l 0.04,0 0.2,0 z m 0.8800003,-2.08 q 0.04,-0.04 0.04,-0.16 -0.12,0 -0.2,-0.04 -0.04,0.08 -0.04,0.16 0.12,0 0.2,0.04 z m 0.16,-2.16 q 0,-0.04 -0.04,-0.04 0,-0.04 0,0 0,0.08 0.04,0.08 l 0,-0.04 z m 4.56,-7.44 q -0.04,0.04 -0.04,0.08 l 0.04,0 q 0,0 0.04,-0.08 l -0.04,0 z m -0.64,-4.52 q 0.12,-0.04 0.12,-0.16 l -0.2,0 q 0.08,0.16 0.08,0.16 z m 0,1.88 q -0.08,0.08 -0.08,0.08 0,0.04 0,0.04 0.04,0 0.04,0.08 0.04,-0.08 0.04,-0.16 l 0,-0.04 z m 0.24,-1.32 q -0.08,0.04 -0.12,0.04 0,0 -0.08,0.04 0.04,0.08 0.08,0.2 0.04,0.12 0.08,0.2 l 0.2,0 q 0,-0.2 -0.12,-0.24 0,-0.08 -0.04,-0.12 0,-0.04 0,-0.12 z m 0,-0.4 q 0.16,-0.08 0.16,-0.16 -0.16,0 -0.16,0.16 z m 0.12,0.96 q -0.08,0.12 -0.16,0.08 -0.08,-0.08 -0.16,0 0.12,0.12 0.16,0.08 0.08,-0.04 0.08,0 0.04,0 0.12,0 0.08,0.08 0.16,-0.04 -0.08,-0.04 -0.12,-0.04 0,-0.04 -0.08,-0.08 z m 0.2,-0.6 q -0.12,0 -0.12,0.08 l 0.04,0.04 q 0.08,0 0.04,-0.04 0,-0.04 0.04,-0.08 z m 0,-0.44 q -0.12,0.12 -0.04,0.2 0.08,0.16 0.16,-0.04 -0.08,-0.08 -0.12,-0.16 z m -0.36,2.08 q -0.04,0.08 -0.08,0.2 0,0.12 -0.04,0.2 0.12,0 0.12,-0.08 0,-0.2 0.12,-0.32 0.08,-0.08 0.08,-0.08 0,-0.04 -0.04,-0.04 -0.12,0 -0.16,0.12 z m 0.04,-0.28 q 0.24,0 0.24,-0.16 -0.04,0.08 -0.12,0.08 -0.08,-0.04 -0.12,0.08 z m 0.2,0.44 q 0,0 0.16,-0.08 l 0,-0.2 -0.04,0 q 0,0.12 -0.04,0.16 0,0.04 -0.08,0.04 -0.04,0 0,0.08 z m -0.04,0.08 0,0.08 0.04,0 0,-0.08 -0.04,0 z m 0.04,1.48 q 0.08,0.08 0.16,0.12 0,-0.04 0,-0.04 0.04,-0.04 0.04,-0.12 l -0.16,0 -0.04,0.04 z m 0.16,-1.96 q 0.04,0 0.04,0 0,-0.04 0.04,-0.04 -0.04,0 -0.04,-0.04 -0.04,0 -0.04,0.04 0,0 -0.04,0 l 0,0.04 0.04,0 z m 0.12,-0.68 q 0.08,-0.12 0.16,-0.12 0.12,-0.04 0.08,-0.2 -0.04,0 -0.04,0.04 0,0 -0.04,0 -0.12,0 -0.16,-0.04 -0.08,-0.16 0.04,-0.2 l 0.04,0 -0.12,-0.12 q -0.08,0.2 -0.16,0.28 0.04,0.08 0.12,0.16 0.12,0.04 0.08,0.2 z m 0.12,-0.72 q 0,0.12 0.12,0.12 0,-0.08 -0.04,-0.08 -0.04,0 -0.08,-0.04 z m 0.16,-0.44 -0.04,0 -0.04,0 q -0.08,0.08 -0.12,0.16 l 0.04,0 q 0.08,0 0.16,-0.08 l 0,-0.08 z m 0.48,-1.16 q 0,-0.08 -0.04,-0.08 l -0.24,0 q -0.04,0 -0.08,0.04 0,0 -0.04,0 -0.04,0 -0.12,-0.08 -0.08,0.08 -0.08,0.16 -0.04,0.04 -0.04,0.08 0,0 -0.04,0.04 -0.04,0 -0.08,0.04 0,0 -0.04,0 0.08,0.16 0.04,0.2 l 0,0.04 q 0,0.04 0.04,0.04 0,0.04 0,0.04 0.04,0 0.04,0.04 l 0,0.04 q -0.12,-0.12 -0.24,-0.08 0,0.12 0.08,0.12 0.08,-0.04 0.12,0.04 0.04,0.04 0.08,0.08 l 0,0.04 q -0.12,0.04 -0.2,-0.12 -0.16,0.16 -0.28,0.24 l -0.08,-0.08 q -0.04,0.2 0.12,0.2 0.04,-0.04 0.08,-0.04 0.04,0 0.08,-0.04 0.16,-0.16 0.24,0.04 0,0.04 0.04,0.08 0.04,-0.04 0.04,-0.12 0.04,-0.04 0.04,-0.04 0.04,0 0.08,-0.04 -0.16,-0.08 -0.16,-0.08 l 0,-0.04 q 0.16,0.04 0.28,-0.16 0.04,0 0.08,0.04 0.04,0 0.12,0 0,-0.16 -0.08,-0.24 -0.04,0.12 -0.12,0.12 -0.08,0 -0.16,0 -0.08,0 -0.08,-0.12 0.08,-0.08 0.16,-0.08 l 0.12,0.12 q 0.08,-0.08 0.08,-0.12 0.04,-0.04 0.08,-0.12 0.04,-0.08 0.08,-0.08 0.08,-0.08 0.08,-0.12 z m -1.16,0.64 q 0.08,-0.04 0,-0.12 l 0,0.12 z m 0.52,-1.12 q 0,0 -0.08,0 -0.08,0.16 -0.08,0.24 l 0.48,0 0,-0.04 q -0.12,0 -0.2,-0.04 0,-0.08 -0.04,-0.08 0,-0.04 0,-0.12 -0.04,0.04 -0.08,0.04 z m -0.04,-0.52 q -0.08,0.12 0.08,0.12 0,-0.04 -0.08,-0.12 z m -0.12,1.12 q 0,-0.04 -0.04,-0.08 l 0,0.08 0.04,0 z m -0.08,-1.48 q 0.12,-0.04 0.08,-0.08 0,0 -0.04,-0.04 0,0.08 -0.04,0.12 z m 0.68,1.08 q 0.2,0.08 0.32,0 -0.08,0 -0.12,0 -0.04,-0.04 -0.08,-0.04 -0.04,-0.08 -0.04,-0.24 0,-0.04 0,-0.08 0.04,-0.04 0.04,-0.08 0,-0.04 -0.04,-0.04 -0.04,0.08 -0.08,0.12 -0.04,0 -0.08,0.08 -0.04,0 -0.12,0 -0.04,-0.04 -0.04,0.08 0.08,0 0.24,0.08 l 0,0.12 z m 0.24,-0.12 q 0.08,-0.16 0.08,-0.16 -0.04,-0.04 -0.16,0 l 0,0.04 q 0.04,0.04 0.08,0.12 z m 0.4,-1.4 q -0.08,0.08 0.04,0.16 0.04,-0.08 -0.04,-0.16 z m -0.12,-6.08 q -0.16,0.08 -0.08,0.16 0.04,0.04 0.04,0.08 0,0 0.04,0.04 0,-0.04 0.04,-0.04 -0.04,-0.08 -0.04,-0.24 z m -0.12,5.56 q -0.08,-0.08 -0.08,0.04 0,0.04 0.04,0.04 0.04,0.04 0.04,0.04 0.04,0 0.08,0.04 0,-0.16 -0.08,-0.16 z m 0,0.44 q -0.08,-0.04 -0.08,0.08 0,0 0.08,-0.08 z m -0.08,0.2 q -0.04,0.08 -0.04,0.2 0.16,0.08 0.24,0.08 0.12,0 0.08,-0.12 0,-0.08 -0.08,-0.16 -0.08,0.04 -0.12,0.08 0,0 -0.08,-0.08 z m -0.28,-2.08 q 0,0 0,0.08 0,0.16 0.16,0.2 0,0 0.08,-0.16 l -0.12,-0.12 q 0,-0.12 -0.12,0 z m -0.08,0.64 q -0.04,0.04 -0.08,0.04 0,0 -0.08,0.08 0.12,0 0.28,0.08 0.16,0 0.16,-0.16 -0.16,0.08 -0.28,-0.04 z m -0.4,0.2 q -0.04,0 -0.04,0.04 0,0 -0.04,0 l 0.12,0.12 q 0.04,0 0.08,-0.04 0,-0.12 -0.08,-0.16 -0.04,0 -0.04,0.04 z m -0.32,0.44 q -0.04,0.04 -0.16,0.04 0.08,0.16 0.08,0.16 0.04,0 0.04,0.04 0,0.08 0.04,0.12 0.04,0 0.08,0.08 0.04,0.08 0.2,0.12 -0.04,-0.08 -0.08,-0.12 0,-0.08 -0.04,-0.16 0.2,0.12 0.2,0.12 0.04,-0.04 0.12,-0.12 0.04,0.04 0.04,0.04 0.04,-0.04 0.12,0.04 0.04,0.08 0,0.12 -0.04,0 -0.04,0.08 0.04,0 0.12,0.08 -0.08,0.04 -0.12,0.04 -0.04,0 -0.12,0.04 -0.16,-0.08 -0.28,-0.04 0.08,0.08 0.12,0.08 0.16,0.12 0.16,0.28 -0.04,0.04 -0.04,0.08 0,0.04 0,0.08 0.04,0 0.04,0.04 0.04,-0.04 0.08,-0.04 0.04,-0.04 0.04,-0.08 0.08,0 0.12,0 0.04,-0.04 0.12,-0.04 0,0.08 -0.08,0.08 -0.04,0 -0.12,0.08 -0.04,0.08 -0.2,0.16 0.04,0.04 0.04,0.08 0,0 0.04,0.04 0,0.16 -0.16,0.2 0.04,0 0.08,0.04 0.12,-0.04 0.2,-0.08 0.12,-0.08 0.24,-0.04 l 0,-0.04 q -0.16,-0.08 -0.2,-0.08 0.08,-0.08 0.12,-0.04 0.04,0.04 0.12,0.08 0.04,-0.04 0.04,-0.08 0.04,-0.04 0.08,-0.08 l 0.24,0 q -0.08,-0.12 -0.2,-0.24 -0.04,-0.04 -0.04,-0.04 0,-0.04 -0.04,-0.08 0,0 -0.08,-0.24 0.08,-0.08 0,-0.2 l 0,-0.12 q 0.12,-0.12 0,-0.2 -0.04,-0.08 -0.04,-0.12 0.04,-0.04 -0.04,-0.08 -0.04,0 -0.04,-0.04 0.04,-0.04 0.04,-0.04 0.04,0 0.08,-0.04 -0.08,-0.04 -0.16,-0.12 0.04,-0.04 0.04,-0.04 0,-0.04 0.04,-0.08 -0.08,0 -0.12,0 -0.04,-0.04 -0.08,-0.04 -0.04,-0.04 -0.04,-0.08 0.04,-0.08 -0.04,-0.04 l 0,0.36 0.04,0 q 0,0 0,0.08 -0.08,-0.08 -0.08,0 0,0.04 -0.08,0.04 -0.04,-0.04 -0.04,-0.04 0,-0.04 -0.04,-0.08 l 0,-0.12 q -0.08,0.04 0,0.12 -0.04,0 -0.04,0.04 l 0,0.12 q -0.08,0 -0.16,0.08 -0.08,0.04 -0.16,-0.08 0.16,-0.08 0.12,-0.2 -0.12,0.12 -0.12,0.12 z m -0.16,-6.88 q -0.04,0 -0.08,0.04 0.04,0 0.04,0.04 0,0 0.08,0 -0.04,-0.04 -0.04,-0.08 z m -0.28,9.84 q -0.08,-0.16 -0.12,-0.28 l -0.16,0.16 q 0.16,0.12 0.2,0.16 0.08,0.04 0.28,-0.04 0.08,-0.16 0.16,-0.28 l -0.24,0 q 0.04,0.16 -0.12,0.28 z m -0.56,5.64 q 0,0.04 0.04,0.08 l 0.04,0 q -0.04,-0.04 -0.04,-0.08 l -0.04,0 z m 0,0.24 q -0.08,-0.04 -0.16,0 -0.08,0 -0.16,-0.04 -0.12,-0.04 -0.2,0 -0.08,0.04 -0.16,0.04 0.2,0 0.32,0.04 0.16,0 0.36,-0.04 z m 0,-0.56 q 0.36,0 0.2,-0.28 -0.16,0.04 -0.2,-0.12 -0.08,0 -0.08,0.04 -0.08,0.04 -0.12,0.12 0,0.08 0.08,0.08 0.08,0.04 0.08,0.08 0,0.04 0.04,0.08 z m 0.24,-1.36 q -0.08,0.08 -0.04,0.16 0.12,-0.08 0.04,-0.16 z m 0,-1.44 q 0.08,0 0.08,-0.08 0,-0.08 -0.04,-0.08 -0.16,-0.08 -0.24,-0.08 0,0.04 0,0.08 0.04,0 0.04,0.04 0.04,0.08 0.08,0.08 0.04,0 0.08,0.04 z m 0,-1.76 q 0.08,-0.08 0,-0.16 l 0,0.16 z m 0.16,-2.44 q -0.08,0.04 -0.12,0.04 -0.04,0 -0.12,0.04 0.16,0.04 0.24,-0.08 z m -0.16,0.4 q 0,0 -0.08,0.08 l 0.04,0 q 0,0 0.04,-0.08 z m -0.2,2.84 q 0,0.32 -0.28,0.2 -0.04,0.16 0.08,0.2 0,0.12 0.2,0.28 -0.04,-0.16 -0.16,-0.24 0,0 -0.04,-0.04 0.08,-0.08 0.08,-0.08 0.08,-0.04 0.12,-0.04 0.04,0 0.12,-0.04 -0.04,-0.04 -0.04,-0.12 -0.04,-0.04 0.04,-0.12 l -0.12,0 z m -0.2,1.56 q -0.12,0.04 -0.12,0.24 0.08,-0.04 0.08,-0.04 0.04,0 0.12,-0.04 0,0 -0.08,-0.16 z m -0.04,-0.32 q -0.12,0 -0.04,0.08 l 0.04,0.04 0,-0.12 z m 0.16,-1.88 q -0.04,0.04 -0.04,0.16 0.12,0 0.12,-0.12 l -0.08,-0.04 z m -0.28,0.48 q 0.2,-0.08 0.24,0.04 l 0,0.12 q 0.16,0 0.04,-0.12 l -0.04,0 q 0.04,-0.04 0,-0.08 0,-0.04 0.08,-0.08 l 0,-0.04 q -0.04,-0.08 -0.12,-0.04 -0.04,0.04 -0.12,-0.04 0,0 -0.04,0.04 l -0.04,0 0,0.2 z m -0.2,0.92 q -0.08,-0.04 -0.08,-0.04 0,-0.04 -0.04,-0.08 -0.04,0.04 -0.04,0.08 0,0 -0.04,0.04 l 0.2,0 z m -0.2,-1.2 q 0,0.08 0.04,0.12 l 0.04,0 q 0,-0.08 -0.04,-0.12 l -0.04,0 z m -0.12,1.6 q -0.04,0.08 -0.04,0.16 0,0.04 -0.04,0.12 0.08,0.04 0.16,-0.04 0.04,-0.04 0.04,-0.04 0.04,0 0.08,-0.04 0.12,0 0.2,-0.04 0.08,0 0.08,-0.08 -0.04,0 -0.08,0 0,-0.04 -0.08,-0.04 0.04,-0.08 0.04,-0.08 0.04,-0.04 0.08,-0.12 l -0.16,0 q -0.08,0.04 -0.16,0.12 -0.04,0.04 -0.12,0.08 z m -0.08,0.68 q -0.08,0.08 -0.08,0.16 l 0.32,0 0,-0.16 -0.24,0 z m 0.2,0.32 q -0.12,0 -0.24,0.04 0.04,0.2 0.12,0.24 0.04,-0.08 0.04,-0.12 0.04,-0.08 0.08,-0.16 z m -0.4,-0.6 q 0,0 -0.04,0.04 0.08,0 0.12,0.04 l 0,-0.04 q -0.04,0 -0.04,0 0,-0.04 -0.04,-0.04 z m 0.04,0.56 q -0.08,0.12 0,0.2 0,-0.04 0.04,-0.08 0,-0.04 -0.04,-0.04 0,-0.04 0,-0.08 z m 0.04,0.52 q -0.08,-0.04 -0.24,0.04 0,0.08 0,0.12 0.04,0.04 0.04,0.12 0.04,0.08 0.04,0.12 0,0.04 0.04,0.08 0.08,0.24 0.04,0.44 -0.12,0 -0.12,0.16 0,0.2 0.12,0.2 l 0,0.04 q 0.04,0.08 0.08,0.12 0.08,0.04 0.16,0.12 0.04,-0.08 0.04,-0.12 0.04,-0.04 0.08,-0.12 0.04,0.04 0.08,0.04 0.04,0 0.12,0.04 0,-0.16 0.04,-0.2 0.08,-0.08 0.08,-0.12 0.04,-0.04 0.12,-0.08 0.08,-0.08 0.04,-0.28 0,-0.04 -0.04,-0.04 -0.04,-0.04 -0.08,-0.12 0.04,-0.16 -0.08,-0.28 -0.04,0.04 -0.16,0.04 0.04,0.32 -0.12,0.36 -0.16,-0.24 0,-0.32 0.04,-0.04 0.04,-0.16 0.04,-0.04 0.04,-0.04 0,-0.04 0.08,-0.08 l 0.28,0 q 0.04,-0.04 0.04,-0.08 0,-0.04 0.04,-0.08 l 0.24,0.12 q 0,-0.04 0,-0.04 0.04,-0.04 0.04,-0.08 -0.12,0 -0.16,-0.04 -0.08,0 -0.08,-0.08 0,0 0.08,-0.04 0.04,0 0.16,-0.12 l 0.04,0 q 0.12,0 0.12,-0.04 0,-0.08 -0.08,-0.08 -0.04,-0.04 -0.2,-0.04 -0.12,0.12 -0.16,0.08 0.12,-0.12 0,-0.16 0,0 -0.16,0.08 0,-0.4 -0.08,-0.56 -0.12,0.16 0,0.28 0,0.04 -0.04,0.08 0,0 0,0.04 0.12,0.2 0.08,0.28 -0.08,0.08 -0.08,0.12 0,0.04 -0.04,0.08 -0.12,0.12 -0.16,0.2 l -0.16,0 -0.16,0 z m -0.32,-0.24 q 0.04,0.04 0.04,0.08 l 0.04,0 q 0,0 -0.04,-0.08 l -0.04,0 z m -0.08,1.36 q -0.16,-0.04 -0.16,0.2 -0.12,0.08 -0.08,0.2 0.04,0.08 -0.04,0.16 0.16,0.08 0.16,0.08 0.2,0.08 0.24,0.04 0.08,-0.08 0.12,-0.08 0.08,0 0.16,-0.04 0,0 -0.08,-0.08 -0.08,-0.12 -0.12,0 l -0.12,0 q 0,-0.04 0,-0.04 0.04,-0.04 0.04,-0.12 0,-0.08 -0.04,-0.12 0,-0.12 -0.08,-0.2 z m -0.4,-0.64 q -0.04,0.12 0.04,0.28 0.16,0 0.24,-0.04 l 0,-0.12 -0.04,-0.04 q -0.04,0 -0.04,-0.04 -0.08,0.04 -0.12,0 0,-0.04 -0.08,-0.04 z m 0.04,2.84 q -0.12,0.04 -0.16,0.12 0.08,0.04 0.16,-0.12 z m -0.2,1.48 q 0.08,0 0.08,-0.04 l 0,-0.04 -0.08,0.08 z m 0.24,0.52 q 0,-0.04 0.04,-0.08 0,-0.08 -0.04,-0.08 -0.04,0 -0.08,0.04 0,0.08 -0.08,0.08 0,0 -0.16,0.08 0.08,0.08 0.08,0.08 l 0.24,-0.12 z m -0.24,4.48 q 0,-0.04 -0.04,-0.04 0,0 0,-0.04 0,-0.04 0,-0.04 0.04,0 0.04,-0.08 l -0.24,0 q 0,-0.04 -0.04,-0.04 0,-0.04 0,-0.08 -0.12,0.12 -0.12,0.32 -0.08,0.04 -0.16,0.12 -0.04,0 -0.12,-0.04 0,0.2 -0.04,0.28 0.12,0 0.2,0 0.12,-0.04 0.2,-0.04 0.08,-0.2 -0.08,-0.24 0.08,-0.04 0.08,-0.04 0.04,-0.04 0.12,-0.08 0.08,0.04 0.2,0.04 z m -0.48,1 q 0.04,0.12 0.12,-0.04 -0.04,0 -0.08,0.04 0,0 -0.04,0 z m 0.12,0.24 q 0.04,0 -0.04,-0.08 l -0.04,0 q 0,0.04 -0.04,0.08 0,0.04 0,0.08 l 0,0.04 q 0.12,-0.12 0.12,-0.12 z m -0.28,-0.24 q -0.08,0.08 -0.04,0.12 l 0.08,0 0,-0.12 -0.04,0 z m -0.04,-0.08 q 0,0 0.08,-0.04 -0.04,-0.04 -0.08,-0.04 0,0 -0.04,0.04 l 0.04,0.04 z m 0.68,-1.44 q -0.12,0.12 0.08,0.12 -0.08,-0.08 -0.08,-0.12 z m -0.12,-5.2 q 0,0 0.08,0.08 l 0,-0.16 -0.08,0.08 z m -0.12,0.16 0,0.12 0.08,0 q 0,-0.08 -0.04,-0.12 l -0.04,0 z m 0.08,1.2 q -0.08,0 -0.2,0 -0.08,-0.04 -0.16,-0.04 0,0.04 0,0.08 0.04,0.04 0.04,0.08 0.16,-0.08 0.24,0 -0.16,0.08 -0.16,0.08 0,0 0.04,0.04 0.08,0.08 0.12,0.12 0.04,0.04 0.12,0.12 l 0,-0.2 q -0.08,0 -0.08,-0.04 l -0.04,0 q 0.08,-0.04 0.08,-0.04 0.04,0 0.12,-0.04 0,0 -0.16,-0.08 0.04,-0.04 0.04,-0.08 z m -0.36,2.96 q -0.04,-0.04 -0.16,-0.04 0.04,0.04 0.04,0.12 0.04,-0.04 0.04,-0.04 0.04,0 0.08,-0.04 z m -0.08,0.84 q -0.04,-0.08 -0.2,-0.04 0.16,0.08 0.16,0.08 l 0.04,-0.04 z m -0.76,0.04 q 0.12,0.04 0.2,-0.08 -0.08,-0.16 -0.2,-0.08 l 0,0.16 z m -0.04,2.04 q 0.04,0.12 0.12,0.08 -0.04,-0.04 -0.12,-0.08 z m 0.04,-0.4 q 0.12,0.04 0.12,-0.08 -0.04,0 -0.12,0.08 z m 0.12,-1.04 q 0.12,0.08 0.24,0.04 0.12,-0.04 0.28,0 l 0,-0.16 q -0.16,0.08 -0.2,0.12 0,0 -0.08,-0.04 0.08,-0.08 0.16,-0.12 -0.16,-0.08 -0.2,-0.12 0.08,-0.04 0.16,-0.2 -0.16,-0.08 -0.24,0.04 -0.08,0.08 -0.16,0.16 0.16,0.08 0.16,0.08 0.04,0.08 -0.04,0.12 -0.04,0 -0.08,0.08 z m 0.28,0.24 q 0.08,0.04 0.12,0 l -0.12,0 z m -0.16,3.24 q 0.12,-0.08 0,-0.16 l 0,0.16 z m 0.08,-0.44 q 0,0 0.08,-0.04 l -0.12,-0.12 -0.04,0 q 0,0.08 0.08,0.16 z m -0.08,-0.32 q 0.2,0 0.32,0.04 -0.08,0.12 0,0.16 0.04,-0.08 0.04,-0.16 0.04,0 0.08,0 0.04,-0.04 0.12,-0.04 -0.32,-0.12 -0.56,0 z m 0.28,-1.12 q 0,0.08 0,0.12 0.04,0 0.04,0.08 l 0.04,0 0,-0.16 q -0.08,0 -0.08,-0.04 z m 0.24,0.12 q 0.08,-0.08 0,-0.12 0,0 -0.08,0.04 l 0.08,0.08 z m -0.2,1.48 q 0.24,0 0.28,-0.08 -0.04,-0.08 -0.2,-0.16 -0.12,0.16 -0.16,0.2 0,0.04 0.08,0.12 -0.12,0.04 -0.04,0.2 0.04,-0.04 0.12,-0.2 0,0 -0.08,-0.08 z m 0.4,-1.72 q 0.04,-0.04 0.04,-0.08 0,-0.04 0.04,-0.12 -0.08,0.08 -0.08,0.08 -0.04,0 -0.04,0.04 0,0 -0.04,0 -0.16,0.16 -0.16,-0.04 -0.04,-0.04 -0.04,-0.04 0,-0.04 -0.04,-0.08 l 0.12,0 q -0.04,-0.08 -0.12,0 -0.24,0.08 -0.32,-0.08 0,0.04 -0.04,0.04 0,0.08 0,0.08 0.04,0 0.08,0.08 0.04,0.12 0.12,0.04 0.08,0 0.12,0.04 -0.08,0.04 -0.16,0.04 l 0,0.04 q 0.04,0.04 0.16,0.04 0.12,0 0.36,-0.08 z m 0.36,-0.44 q 0.04,-0.08 0.04,-0.12 -0.16,-0.08 -0.16,-0.08 -0.12,0.08 -0.04,0.16 0.04,0.04 0.16,0.04 z m 0.4,-0.4 q 0.12,0.08 0.12,-0.04 0,-0.12 0.08,-0.12 -0.08,0 -0.12,-0.04 0,-0.04 -0.08,0 l -0.04,0 q 0,0 0,-0.04 0,-0.08 -0.08,-0.04 -0.04,0 -0.04,-0.04 -0.08,0.08 -0.08,0.08 0,0.12 -0.12,0.04 -0.08,-0.08 0.04,-0.12 0.04,-0.08 -0.04,-0.16 0,0.08 -0.08,0.08 -0.16,0.24 -0.32,0.2 l 0,0.04 q 0.08,0.04 0.12,0.04 0.08,0 0.16,0.04 0,0.24 0.24,0.28 0,-0.08 -0.08,-0.08 -0.04,0 -0.04,-0.08 0,-0.16 0.04,-0.16 0.16,0 0.16,0.12 0,0 0.08,0.04 l -0.08,-0.16 0.2,0 q -0.04,0.08 -0.04,0.12 z m -0.08,-4.48 q 0.08,0.2 0.16,0.2 0,-0.08 -0.04,-0.08 -0.04,-0.04 -0.12,-0.12 z m 0.24,0.36 q -0.12,-0.04 -0.16,0 0.04,0.12 0.16,0 z m 0.16,3.16 -0.2,0 0,0.12 q 0.08,0.04 0.2,0.04 l 0,-0.16 z m 0.04,-3.32 q 0,-0.08 0.04,-0.12 l 0.16,0 0,-0.24 q -0.08,0 -0.12,0.04 0,0 -0.08,0 0,0.12 -0.2,0.2 0.08,0.04 0.08,0.08 0.04,0 0.12,0.04 z m 0.16,1.28 q 0.08,0 0.2,0.04 -0.12,-0.12 -0.12,-0.12 l 0,-0.08 q 0,-0.04 -0.04,-0.04 l -0.16,0 q 0.12,0.08 0.12,0.2 z m 0,-1.76 q 0.08,-0.04 0.08,-0.04 0.04,-0.04 0.12,-0.08 l -0.08,-0.08 q -0.08,0.08 -0.12,0.16 0,-0.08 -0.04,-0.08 0,-0.04 0,-0.08 -0.08,0.12 0.04,0.2 z m 0.16,-0.28 q 0.16,0 0.08,-0.16 -0.04,0.12 -0.2,0.04 -0.16,0 -0.08,0.12 l 0,0.08 0.16,0 q 0,-0.04 0,-0.04 0.04,0 0.04,-0.04 z m 0.24,0.12 q 0.08,-0.08 0.16,-0.12 0.08,-0.04 0.12,-0.2 -0.04,0 -0.08,0 0,-0.04 -0.04,-0.04 0,0.04 -0.04,0.08 0,0.04 0,0.08 -0.08,0 -0.08,-0.04 -0.08,0.08 -0.16,0.16 -0.04,0.04 -0.04,0.16 l 0.08,-0.08 0.08,0 z m 0.12,-2.88 q 0,-0.08 -0.08,-0.08 -0.04,-0.04 -0.12,-0.08 0.08,-0.08 0.12,-0.04 0.04,0 0.12,0 0.08,-0.16 0.12,-0.28 0.12,0 0.12,-0.04 0,-0.08 0.04,-0.12 -0.08,-0.08 -0.08,-0.12 -0.08,-0.12 -0.16,-0.12 -0.2,-0.08 -0.28,0.16 -0.08,0.12 -0.08,0.24 0.04,0.12 0,0.24 0,0.16 -0.08,0.2 -0.08,-0.08 -0.12,-0.12 0,-0.04 -0.08,-0.12 -0.04,-0.16 0.04,-0.32 0.04,-0.16 -0.12,-0.16 l -0.08,0 0,0.24 q -0.08,-0.08 -0.2,-0.04 -0.08,0.04 -0.12,0.12 -0.04,0.04 -0.12,0.12 l 0,0.08 q 0.04,0.04 0.08,0.04 0.08,-0.04 0.16,-0.16 0,-0.08 0.04,-0.12 0.2,0.2 0.32,0.28 -0.04,0.04 -0.08,0.04 -0.04,-0.04 -0.04,0 -0.04,0.08 -0.08,0.08 -0.04,0 -0.08,0.04 -0.12,0.04 0,0.16 0,0.04 0.08,0.12 -0.08,0 -0.12,0.04 0,0 -0.04,0 -0.04,0 -0.04,-0.04 -0.16,-0.04 -0.16,0.08 0,0.08 -0.16,0.16 0,0.04 0.08,0.04 l 0.04,0 q 0.08,0.24 0.28,0.28 l -0.12,0.12 q -0.16,-0.12 -0.28,0 -0.04,0 -0.04,0.08 0.12,-0.04 0.28,-0.04 -0.04,0.08 -0.04,0.16 -0.08,0.04 -0.12,0.04 0,0 -0.08,0.04 l 0.24,0.12 q -0.16,0.08 -0.2,0.08 l 0.12,0.24 q 0.04,0.12 0.24,0.12 0.08,0 0.12,0 0.08,-0.04 0.16,-0.04 0.04,-0.12 -0.08,-0.12 -0.12,-0.04 -0.12,-0.12 l 0.08,-0.08 q 0,0 0.08,-0.04 0.16,0.08 0.08,0.36 0,0.12 0.04,0.16 0.04,0.04 0.08,0.04 l 0,0.16 q 0.04,0.04 0.2,0.04 -0.12,-0.04 -0.08,-0.2 l 0,-0.08 q 0.12,-0.08 0.24,-0.16 0.12,-0.08 0.2,-0.2 0.04,0.04 0.04,0.08 0,0.04 0.04,0.08 0.04,-0.04 0.04,-0.04 0,-0.04 0.04,-0.08 -0.12,-0.12 -0.2,-0.16 -0.24,0.12 -0.28,0.16 -0.04,0.04 -0.08,0.16 -0.04,0 -0.08,-0.04 l 0,-0.12 q -0.04,-0.2 0.12,-0.24 0.04,-0.04 0.08,-0.04 0,0 0.16,0.08 0.08,-0.12 0.24,-0.28 -0.16,-0.16 -0.32,-0.16 -0.04,0.04 -0.12,-0.04 -0.08,-0.2 -0.28,-0.12 l 0,-0.2 q 0.28,0 0.44,-0.04 0.12,0 0.16,-0.08 0.04,-0.12 0.12,-0.2 -0.04,-0.08 -0.04,-0.12 0,-0.04 -0.08,-0.12 -0.04,0.04 -0.12,0.04 z m -0.08,0.56 q -0.12,0.08 0,0.16 l 0,-0.16 z m 0.44,0.56 q 0.04,0.04 0.04,0.04 0.04,-0.04 0.12,0 -0.12,-0.12 -0.12,-0.2 -0.12,0.12 -0.04,0.16 z m 0.2,-0.84 -0.04,0 q -0.08,0.08 0.04,0.16 l 0,-0.16 z m 0.12,-0.16 q 0.04,-0.04 -0.08,-0.16 0,-0.08 -0.04,-0.08 0,-0.04 0,-0.12 l -0.24,0.24 0.04,0 q 0.04,0 0.04,0 0,-0.04 0.04,-0.04 0.08,0.08 0.24,0.16 z m -0.12,-0.68 q 0.16,0 0.16,-0.16 l -0.16,0.16 z m 0.16,-0.4 q 0.08,0 0.24,-0.08 l -0.04,0 -0.2,0 0,0.08 z m 0.2,-1.08 q 0.04,0.08 0.04,0.16 0.04,0.04 0.12,-0.04 -0.08,-0.16 -0.16,-0.12 z m 0.32,-0.32 0.16,0 q 0,-0.04 -0.04,-0.04 0,-0.04 0,-0.08 0.04,-0.04 0.04,-0.04 0.04,0 0.08,-0.04 l -0.24,0 q -0.08,-0.08 -0.08,-0.12 -0.08,0.04 -0.08,0.08 0,0 -0.04,0.04 -0.12,0 -0.16,-0.04 -0.04,0.16 -0.08,0.28 0,0.12 0.12,0.24 l 0,-0.24 q 0.08,0 0.12,-0.04 l 0,-0.04 q 0,0 0.04,-0.04 0.04,-0.04 0.08,-0.04 0.08,0 0.04,0.08 l 0.04,0.04 z m 0.24,0.12 q -0.08,-0.04 -0.12,0.04 0,0.04 -0.08,0.04 0.08,0.08 0.12,0.08 0,-0.08 0.08,-0.16 z m -0.24,0.36 q 0.08,0.16 0.16,0.2 0,-0.04 0,-0.04 0.04,-0.04 0.04,-0.08 0,-0.12 -0.04,-0.16 -0.04,-0.04 -0.08,0 0,0.04 -0.04,0.04 l -0.04,0.04 z m 0.08,0.84 q 0.12,0.12 0.24,0 -0.08,-0.04 -0.24,0 z m 0.76,-0.32 q 0,0 -0.16,-0.08 0.04,-0.08 0.04,-0.08 0.04,0 0.08,-0.04 0.08,-0.08 0.08,-0.08 0.12,-0.12 0.04,-0.24 -0.08,-0.08 -0.2,0 0,0 -0.04,0.08 -0.12,0.16 -0.16,0.36 -0.08,-0.16 -0.12,-0.2 -0.04,0.12 0,0.2 0.04,0.04 -0.04,0.2 0.04,0 0.04,0.04 l 0.2,-0.2 q 0.16,0.2 -0.12,0.36 0.04,0.08 0.08,0.04 0.04,-0.04 0.08,-0.04 0.08,0.04 0.08,0.04 0.04,-0.04 0.12,-0.04 -0.04,-0.04 -0.08,-0.04 -0.08,0 -0.08,-0.04 0.04,0 0.2,-0.08 0.04,-0.04 0.04,-0.12 0,0 -0.08,-0.04 z m 0.36,19.6 q -0.04,0.04 -0.08,0.04 -0.04,0 -0.12,0.04 0.2,0.28 0.36,0.16 l 0.16,-0.16 -0.12,-0.12 q 0.04,-0.04 0.08,-0.04 0.04,0.04 0.04,-0.04 l -0.24,0 q 0,0.08 -0.04,0.16 0,0 -0.04,-0.04 l 0.04,0 q -0.08,0 -0.08,-0.08 0,0.04 0.04,0.08 z m 2.12,-6.76 q 0,0.04 -0.04,0.08 0,0 0,0.04 l 0.04,0.04 q 0.04,0 0.04,-0.04 0,-0.08 -0.04,-0.12 z m -1.12,0.6 q 0,0 -0.04,0.04 l 0.12,0.12 q 0,-0.04 0.04,-0.04 l -0.12,-0.12 z m -0.04,-0.2 q -0.08,0 -0.12,0.04 l 0,0.04 q 0.04,0 0.04,0 0.04,-0.04 0.08,-0.04 l 0,-0.04 z m -0.08,0.48 q -0.04,0 -0.08,0 0,0.04 -0.04,0.04 0.08,0.04 0.12,-0.04 z m -0.08,0.36 q -0.12,0 -0.12,0.08 0.08,0.08 0.16,0.08 0.04,-0.08 -0.04,-0.16 z m -0.4,1.28 q 0,0 0.08,-0.04 -0.04,0 -0.08,-0.04 0,0.04 -0.04,0.04 0,0 0,0.04 l 0.04,0 z m 0.4,-0.56 q 0.08,0 0.12,0.04 0.04,0.08 0.12,0 -0.12,-0.16 -0.04,-0.4 -0.16,-0.08 -0.16,-0.08 0.08,0.16 0,0.24 0,-0.08 -0.04,-0.12 -0.04,0.08 -0.04,0.16 0,0.08 -0.08,0.12 -0.04,0 -0.08,-0.04 l -0.04,0 q -0.08,0.04 -0.04,0.08 0.04,0.04 0,0.08 0.2,0.04 0.28,-0.08 z m 0.28,-0.52 q 0.04,0.04 0.08,0.04 0,-0.08 -0.04,-0.16 l -0.08,0.08 0.04,0.04 z m -0.08,-0.32 q 0.16,-0.12 0.16,-0.28 l -0.2,0 q 0.04,0.08 0.08,0.08 0.04,0.04 -0.04,0.12 l 0,0.08 z m 0.36,-0.16 q -0.12,0.12 0.04,0.2 0,-0.08 -0.04,-0.12 0,0 0,-0.08 z m -0.04,1.12 0.12,-0.12 q 0,0.08 -0.12,0.12 z m 0.08,-0.44 q 0.04,0.12 0.16,0 -0.08,-0.04 -0.12,-0.08 0,0 -0.08,-0.04 0,0.04 0,0.04 0.04,0.04 0.04,0.08 z m 0.44,-1.48 q -0.08,0 -0.12,-0.04 0,-0.08 -0.08,-0.08 -0.08,-0.04 -0.2,-0.04 -0.08,0 -0.16,-0.04 0.04,-0.08 0.04,-0.08 0.04,-0.04 0.08,-0.12 0.04,0.04 0.08,0.04 0.04,-0.12 -0.04,-0.16 -0.16,0 -0.24,0.16 0,0.04 0,0.04 0.04,0 0.04,0.04 l -0.12,0.12 q 0.16,0.08 0.16,0.08 0.08,0.04 0.16,0.04 0.12,0 0.2,0.04 -0.08,0.08 -0.08,0.16 -0.04,0.04 0.08,0.16 0,0.04 0,0.04 0.04,0 0.04,-0.04 0.04,0 0.04,-0.04 -0.08,-0.08 -0.08,-0.12 0,-0.08 0.04,-0.04 0.04,0.04 0.12,0 0,-0.04 0.16,-0.12 l -0.12,0 z m 0,-8.72 q 0,0 0.04,-0.08 -0.04,0 -0.04,0 0,-0.04 -0.04,-0.04 l -0.04,0.04 0.08,0.08 z m 0.56,6.76 q -0.2,-0.12 -0.4,0 l 0.4,0 z m 0.68,-1.4 q 0.12,-0.12 0.08,-0.2 -0.08,0.04 -0.2,0.04 -0.08,0 -0.12,0.04 -0.04,0 -0.12,-0.08 -0.04,0 -0.08,0.04 0,0.08 0.04,0.08 0,0.04 0.08,0.04 0.12,-0.08 0.32,0.04 z m 0.24,-0.04 0.04,0.04 q 0,0 0.04,-0.04 l -0.04,-0.04 -0.04,0.04 z m 0.08,-0.4 q 0,-0.2 -0.12,-0.08 0.04,0.04 0.04,0.04 0.04,0 0.08,0.04 z m 0.52,-9.44 0.04,0.04 q 0,-0.08 0.04,-0.08 -0.04,-0.04 -0.08,-0.04 l 0,0.08 z m 0.12,4.36 q -0.2,0.28 -0.04,0.48 l 0,-0.24 q 0,-0.08 0,-0.12 0.04,-0.04 0.04,-0.12 z m 0.24,2.72 q 0.12,-0.04 0.12,-0.04 0,-0.04 -0.04,-0.16 -0.16,0 -0.12,0.12 l -0.12,0.12 q -0.08,0 -0.12,-0.04 0,0 -0.04,0.04 0.04,0.04 0.04,0.08 0,0 0.04,0.04 0.04,0.04 0.12,0.04 0.08,-0.08 0.04,-0.12 0,-0.04 0.08,-0.08 z m 0.16,-0.52 q 0.04,-0.04 -0.04,-0.12 l 0,-0.04 q -0.08,0.04 -0.04,0.16 l 0.08,0 z m 0.2,-1 q -0.12,0 -0.12,0.04 -0.08,0.08 0,0.24 0.04,-0.08 0.04,-0.12 0.04,-0.08 0.08,-0.16 z m 0.16,-1.76 q 0.04,0.08 -0.04,0.16 0.04,-0.04 0.04,-0.16 z m 0.08,1.32 q 0.08,-0.08 0.12,-0.16 -0.08,0 -0.12,-0.04 0,-0.08 0.04,-0.16 -0.08,0 -0.12,0.04 -0.04,0 -0.12,0 0,0.04 -0.04,0.04 0.12,0.04 0.12,0.16 0,0.08 0.12,0.12 z m 0.2,-0.36 q -0.12,0.08 0,0.12 l 0,-0.08 0,-0.04 z m 0,-1.52 q 0.04,-0.04 0.04,-0.08 -0.04,0 -0.04,0.04 l 0,0.04 z m 1.6,-4.28 q 0.12,-0.08 0.08,-0.12 -0.08,0 -0.08,0.12 z m 0.52,-2.28 q -0.08,-0.08 -0.2,0 0.08,0.08 0.2,0 z m 0.44,-1.4 q -0.12,0.04 -0.12,0.08 0.04,0.04 0.04,0.12 l 0.08,0 0,-0.2 z m 0.44,-2.32 q -0.04,-0.04 -0.04,-0.12 0,0.04 -0.04,0.04 l 0,0.08 0.08,0 z m 0,-5.04 q 0,0.08 0.08,0.12 0,-0.04 -0.08,-0.12 z m 0.28,-0.16 0.04,0 q 0,-0.04 -0.04,-0.08 l 0,0.08 z m 0,0.32 q 0,-0.04 0,-0.04 0.04,0 0.04,-0.04 0,0 -0.04,-0.04 0,0.04 -0.04,0.04 0,0 0,0.04 l 0.04,0.04 z m -0.04,3.36 q 0.04,0.08 0,0.2 0,0.08 0.12,0.16 -0.04,0.12 0.04,0.16 0.08,-0.08 0.12,-0.08 -0.08,-0.16 -0.08,-0.2 l 0,-0.24 -0.2,0 z m 0.2,-3.24 q -0.04,-0.04 -0.12,0.04 0.04,0.08 0.12,0 l 0,-0.04 z m 0.32,2.56 q -0.04,0.04 -0.08,0.04 0,0 -0.04,0.04 0.12,0.08 0.16,0 0,0 -0.04,-0.08 z m 0.08,-3.24 q -0.04,-0.04 -0.08,-0.04 -0.04,-0.04 -0.08,-0.12 -0.08,0.08 -0.08,0.12 0,0.04 0.12,0.16 l 0.12,-0.12 z m 0.04,-3.72 q 0,-0.08 -0.04,-0.12 l 0,0.12 0.04,0 z m 0.68,-2.12 q 0,0.12 0.12,0.12 l -0.12,-0.12 z m -0.32,0.2 0,-0.08 -0.04,-0.04 0,0.12 0.04,0 z m 0.16,0.68 q -0.04,-0.08 -0.04,-0.12 0,-0.04 -0.04,-0.08 0,0.04 -0.08,-0.04 l 0,0.08 0.16,0.16 z m 0.28,-0.12 q 0.04,-0.08 -0.04,-0.16 -0.08,-0.04 -0.12,-0.04 -0.04,-0.04 -0.12,-0.12 0.16,0.32 0.2,0.44 0.12,-0.12 0.08,-0.12 z m 0.16,3.72 q 0.08,-0.08 -0.08,-0.12 0,0.04 -0.04,0.08 0,0 0,0.08 0.08,0 0.12,-0.04 z m -0.04,-3.2 q 0,0 0.08,-0.08 -0.04,-0.08 -0.08,-0.08 0,-0.04 -0.04,-0.12 -0.08,0.28 0.04,0.28 z m 0.12,-0.92 q -0.04,0 -0.08,-0.04 -0.08,0.04 -0.16,0 -0.04,-0.04 -0.12,-0.04 -0.12,-0.04 -0.16,0.16 0.12,0 0.24,0 0.12,-0.04 0.24,-0.04 l 0.04,-0.04 z m 1,1.48 q 0.08,0 0.16,-0.12 -0.08,0 -0.16,-0.04 l 0,0.16 z m -0.44,-0.08 q -0.04,-0.04 -0.08,-0.04 -0.04,-0.04 -0.12,-0.12 0,0.04 -0.04,0.08 0,0 0,0.04 0.08,0.04 0.08,0.08 0.04,0 0.12,0.04 0.04,0.04 0.04,0 0.04,-0.04 0,-0.08 z m -0.08,0.24 -0.04,0 0,0.08 0.04,0 0,-0.08 z m -0.32,-2.92 q 0.16,0.16 0.24,0 l -0.24,0 z m 0.2,1.08 q 0,-0.16 -0.12,-0.04 0.04,0 0.04,0.04 0.04,0 0.08,0 z m -0.12,0.32 q 0.08,-0.04 0.08,-0.04 0.04,0 0.12,-0.04 -0.08,-0.08 -0.08,-0.12 -0.04,0.08 -0.08,0.12 0,0 -0.04,0.08 z m 0.32,3.44 q 0.08,-0.2 0.08,-0.24 0,-0.08 -0.16,-0.16 l 0,0.16 q -0.04,-0.04 -0.08,-0.04 0,0 -0.04,-0.04 0,0.12 0.08,0.2 0.08,0.04 0.12,0.12 z m -0.12,-0.84 q 0,0.08 0.08,0.16 0.08,-0.08 -0.08,-0.16 z m 0.36,-0.76 q -0.08,0 -0.12,0 -0.04,-0.04 -0.08,-0.04 l -0.12,0.36 q -0.08,-0.08 -0.08,-0.12 0,-0.08 -0.08,-0.16 0,0.04 -0.04,0.08 0,0.08 0.04,0.16 0.04,0.04 0.08,0.12 0.04,0.12 0.16,0.08 0.04,-0.04 0.04,-0.04 0.04,0 0.08,-0.04 0,0.08 0,0.12 0.04,0 0.04,0.08 -0.12,0 -0.08,0.08 0,0.16 0.08,0.08 0.16,0 0.2,-0.12 -0.08,0.04 -0.16,0.04 -0.12,0 -0.04,-0.08 0.08,-0.08 0.08,-0.12 -0.04,-0.04 -0.04,-0.04 0,-0.04 -0.04,-0.08 0.04,-0.08 0.08,-0.04 0.04,0 0.12,0 0.08,-0.2 -0.08,-0.28 0,0.12 -0.04,0.2 -0.04,-0.08 -0.08,-0.12 0.04,-0.04 0.04,-0.04 0,-0.04 0.04,-0.08 z m -0.08,-1.16 q -0.04,0.08 -0.04,0.12 0,0.04 -0.04,0.12 0.08,0.08 0.08,0.08 0.04,-0.04 0.12,-0.04 0.04,0 0.04,0.04 0,0.04 0.04,0 l 0,-0.32 -0.2,0 z m 0.24,-4.48 q -0.04,0.04 -0.08,0.08 -0.04,0 -0.08,0.04 0.2,0.08 0.2,0.12 0.16,0.04 0.24,-0.08 -0.04,-0.08 -0.08,-0.04 -0.04,0.04 -0.12,0.04 0,0 -0.08,-0.16 z m 0.4,1.16 0,-0.08 q -0.04,0.04 -0.12,0.04 l 0,0.04 0.12,0 z m 0.04,-0.64 q -0.04,0 -0.04,-0.08 0,-0.04 -0.04,-0.04 -0.08,0.08 -0.12,0.04 0,-0.04 -0.04,-0.08 -0.04,0 -0.2,0.08 0.04,0.08 0.04,0.24 0.04,0.12 0.16,0.12 0.04,0 0.04,0 0.04,-0.04 0.08,-0.04 0,-0.08 -0.08,-0.12 -0.08,-0.04 0,-0.12 l 0.2,0 z m 0.24,2.52 q -0.04,0 -0.08,0.04 0,0 -0.04,0 l 0.12,0.12 0,-0.16 z m -0.08,-1.88 q 0,0.08 -0.04,0.12 0,0.04 0.08,0.12 l 0,-0.24 -0.04,0 z m 0.04,-0.68 q -0.04,0.04 -0.08,0.04 0,0 -0.04,0.04 0,0.04 -0.04,0.08 l 0.08,0.08 0.08,0 0,-0.24 z m 0.08,0.96 q 0,-0.08 0,-0.12 0.04,-0.04 0.04,-0.12 l -0.04,0 0,0.24 z m -8.92,34.64 q 0.08,0 0.16,-0.16 0.04,0 0.08,0 0.04,0.04 0.08,0.04 0,0.08 -0.08,0.16 -0.04,0 -0.04,-0.04 0,0 -0.04,0 0,0.04 0,0.08 0.04,0.04 0.04,0.12 -0.12,-0.12 -0.2,-0.04 -0.08,0.12 -0.16,0.08 -0.08,-0.24 0.16,-0.24 z m -1.68,2.72 q -0.08,0 -0.16,0.04 0.08,0.04 0.08,0.08 0.04,0.04 0.08,0.08 -0.08,0.08 -0.12,0.08 -0.08,-0.04 -0.12,-0.08 0,0 -0.08,-0.04 0.08,-0.08 0.16,-0.12 -0.08,-0.08 -0.04,-0.12 0.08,0 0.08,-0.08 0.12,0.04 0.12,0.16 z m 6.92,-23.64 q -0.04,-0.08 0.04,-0.16 0.08,-0.08 0.08,-0.16 0,0.04 0.08,0.12 -0.04,0 -0.04,0.08 0.08,0.08 0.12,0.12 0.04,0 0.12,0.08 l 0,0.08 q -0.12,0.08 -0.24,-0.16 l -0.16,0 z m -6.68,23.28 q 0.12,0.04 0.28,0.12 0.04,0.12 -0.04,0.08 -0.08,0 -0.12,0.08 -0.16,-0.08 -0.2,-0.12 0,-0.04 0.08,-0.16 z m 0.56,-1.28 q 0.16,-0.08 0.16,-0.08 0,0.08 -0.04,0.08 -0.08,0.08 -0.12,0.08 0,0 -0.08,0 -0.04,-0.08 -0.08,-0.12 0,-0.04 -0.08,-0.12 l 0.24,0 0,0.16 z m -0.56,0.56 q 0,-0.12 0,-0.24 0.04,-0.08 0.04,-0.16 0.04,0 0.28,0.08 -0.16,0.08 -0.16,0.12 -0.08,0.08 -0.08,0.2 l -0.04,0 -0.04,0 z m 4.88,-14.72 q 0.12,-0.12 0.2,0.04 -0.08,0.16 0,0.28 -0.08,-0.04 -0.2,-0.04 l 0,-0.28 z m 2.56,-10.84 0.04,0 -0.04,0 z m 0.24,0.04 q -0.04,0.12 -0.16,0 0,0 -0.04,-0.04 0.04,-0.04 0.12,-0.2 0,0.04 0.08,0.12 0.08,0.08 0,0.12 z m -6.36,21.4 q 0.04,-0.24 0.24,-0.32 0,0.12 -0.16,0.16 0.04,0.08 0.04,0.08 0.04,0 0.04,0.08 l -0.16,0 z m 9.08,-31.28 q 0.2,0 0.28,0.04 l 0,0.16 -0.04,0 q -0.04,-0.08 -0.12,-0.08 -0.04,-0.04 -0.12,-0.12 z m -7.8,28.76 q 0.04,0 0.2,0.16 -0.08,-0.04 -0.16,-0.04 -0.08,0 -0.16,-0.04 0.08,-0.08 0.12,-0.08 z m -3.2,8.96 q 0,0.08 0.04,0.12 l -0.2,0 q 0.04,-0.16 0.2,-0.2 -0.04,0.04 -0.04,0.08 z m 0.04,-1.36 q -0.08,-0.04 -0.12,-0.12 0,-0.04 -0.04,-0.12 0.04,0 0.04,-0.04 0.04,0.08 0.08,0.08 0.04,0.04 0.08,0.12 0,0 -0.04,0.08 z m -0.36,1.8 q 0,0.04 -0.08,0.04 -0.12,0.04 -0.16,-0.12 0.12,0 0.2,0.04 l 0.04,0.04 z m -8.8800003,-13.88 q 0.12,-0.16 0.24,-0.04 -0.08,0.08 -0.12,0.08 -0.04,-0.04 -0.12,-0.04 z m 16.3600003,-9.2 q 0.08,-0.08 0.16,-0.04 0,0.12 -0.04,0.16 -0.08,0.04 -0.08,0 0,-0.08 -0.04,-0.12 z m -0.48,2.68 q 0.04,0 0.08,-0.04 l 0,0.04 q -0.04,0.04 -0.08,0.08 0,0.04 -0.04,0.08 -0.12,-0.04 0,-0.16 l 0.04,0 z m -0.68,1.96 q 0.08,0 0.12,0 0.04,0 0.04,0.12 -0.16,0 -0.16,-0.12 z m -3.68,12.72 q -0.08,0.04 -0.2,0.04 l 0.16,-0.16 q 0,0.04 0,0.08 0.04,0 0.04,0.04 z m -0.88,0.88 q 0.16,0 0.16,0.12 l -0.16,0 0,-0.12 z m 9.48,-30.8 q 0.12,0 0.16,0.16 -0.12,-0.08 -0.16,-0.16 z m -0.08,0.4 q 0.16,0.08 0.12,0.16 0,-0.08 -0.12,-0.04 -0.08,0 0,-0.12 z m -10.44,33.12 q -0.04,0 0,-0.04 0.08,-0.04 0.16,-0.04 -0.04,0.08 -0.08,0.08 0,0 -0.04,0.08 0,-0.04 -0.04,-0.04 0,0 0,-0.04 z m 5.48,-16.52 q 0.08,-0.04 0.24,-0.04 -0.08,0.08 -0.16,0.12 l -0.08,-0.08 z m -5.92,17.16 q 0.08,0.08 0.16,0.12 -0.12,0.04 -0.16,-0.12 z m 11.16,-34.32 q 0.08,0.08 -0.04,0.16 0.04,-0.04 0.04,-0.16 z m 0.16,-2.48 q -0.04,-0.04 -0.08,-0.12 l 0.12,0 0,0.12 -0.04,0 z m -6.4,23 q 0,0 0.08,0.16 -0.08,-0.04 -0.2,-0.04 l 0.12,-0.12 z m -5.32,14.08 q 0.04,-0.12 0.12,-0.04 -0.04,0.08 -0.12,0.08 l 0,-0.04 z m 0.04,1.48 q 0,0.04 0,0.04 0.04,0.04 0.04,0.08 0,0 -0.08,0.04 l 0,-0.12 0.04,-0.04 z m 5.84,-17.4 q -0.08,-0.12 -0.04,-0.2 l 0.04,0 0,0.2 z m -4.96,13.64 q 0.08,0 0.08,0.12 -0.08,0 -0.08,-0.12 z m 0.28,0 q 0,0.08 -0.04,0.12 0,0 -0.04,-0.04 0,0 0.04,-0.08 l 0.04,0 z m 5.92,-19.16 q 0,0 0.04,-0.04 l 0.08,0.08 q -0.04,0 -0.04,0.04 0,0 -0.04,0 0,0 -0.04,-0.08 z m -0.04,0.96 0.08,0.08 q -0.04,0 -0.08,0.04 0,-0.04 -0.04,-0.04 0,0 0,-0.04 l 0.04,-0.04 z m -0.92,3.96 q 0.04,0.08 0.04,0.2 l -0.04,0 q 0,-0.08 -0.04,-0.08 0,-0.04 0,-0.12 l 0.04,0 z m -5.84,18 q -0.12,-0.04 0,-0.16 l 0,0.16 z m 11.2,-36.72 q 0.08,0.04 0,0.12 l -0.04,-0.04 q 0,-0.04 0,-0.04 0.04,0 0.04,-0.04 z m -11.92,35.12 q 0.04,0 0.04,-0.04 0,0 0.04,0 l 0.04,0.04 q -0.04,0.04 -0.08,0.04 0,0 -0.04,0.04 l 0,-0.08 z m 1.72,-1.4 q 0,0.08 -0.12,0 0.04,0 0.04,-0.04 0.04,0 0.08,0 l 0,0.04 z m -1.44,0.56 q -0.16,0 -0.04,-0.12 0.08,0.08 0.08,0.08 l -0.04,0.04 z m 7.56,-19.24 q -0.04,-0.08 0,-0.16 l 0,0.16 z m -7.4,19.2 q 0,0 0.04,0.04 0,0.04 -0.04,0.04 -0.04,0 -0.04,-0.04 0,0 -0.04,0 0.04,0 0.04,-0.04 0,0 0.04,0 z m 8.84,-26.56 q 0,0 0.04,0.04 0,0.08 -0.08,0.08 0,-0.08 0.04,-0.12 z m -7.36,24.56 q 0.08,-0.04 0.08,0.08 -0.08,-0.08 -0.08,-0.08 z m 6,-19.2 q 0.08,-0.08 0.08,-0.04 0,0.04 0.04,0.04 l -0.12,0 z m -7.64,21.04 q -0.08,0 -0.16,-0.04 l 0.16,0 0,0.04 z m 0.44,0.72 -0.12,0 0.04,-0.04 0.08,0 0,0.04 z m 4.4,-11.84 q -0.04,-0.08 0,-0.12 l 0,0.12 z m 1.16,-4 -0.04,0 0,-0.04 0.04,-0.04 0,0.08 z m -5.44,16.36 q -0.04,0 -0.04,-0.04 l 0,-0.04 q 0,0 0.08,0.08 l -0.04,0 z m 0,0.96 q -0.04,0 -0.08,0.04 0,-0.04 -0.04,-0.04 0.04,-0.04 0.12,-0.04 l 0,0.04 z m -0.36,-2.76 q 0,0 0.08,0.04 -0.08,0.04 -0.16,0.04 0.08,-0.08 0.08,-0.08 z m -3.56,-13.68 q 0.2,-0.04 0.2,0.16 0,0.16 -0.04,0.24 -0.08,-0.16 -0.16,-0.4 z m -0.2,0.64 q 0.08,0.08 0.08,0.08 0,0.16 -0.08,0.28 -0.08,-0.12 -0.04,-0.2 0.04,-0.08 0.04,-0.16 z m 0.72,-0.4 q 0,0.16 -0.16,0.16 0.04,-0.08 0.04,-0.08 0,-0.04 0.04,-0.12 0.04,0 0.08,0.04 z m -0.36,-0.44 q -0.2,0.04 -0.2,-0.12 0.08,0.04 0.08,0.08 0.04,0 0.12,0.04 z m 0.08,0.68 q 0.08,0 0.12,0.04 l 0.04,0 q -0.04,0.04 -0.12,0.04 l 0,0.12 q 0,-0.04 -0.04,-0.04 l 0,-0.16 z m 0.44,-1.56 q 0,0.12 -0.12,0.08 0.04,-0.04 0.04,-0.04 0.04,0 0.08,-0.04 z m 0.08,-0.28 q 0.04,0.08 -0.04,0.12 0,-0.08 0.04,-0.12 z m -0.28,-1.2 q 0,0.04 -0.04,0.08 -0.04,0 -0.04,-0.04 -0.12,-0.08 0.04,-0.24 0.08,0.08 0.04,0.2 z m 0.04,-0.72 q 0,0.08 -0.04,0.12 0,0.04 0,0.12 -0.08,-0.16 0.04,-0.24 z m -0.28,0.4 q 0,0 0.04,-0.04 0,0.04 0.04,0.04 -0.04,0.04 -0.08,0.04 l 0,-0.04 z m 2.72,-6.08 q -0.04,0.04 -0.08,-0.04 0.04,-0.04 0.04,-0.04 0,-0.04 0.04,-0.08 0.08,0.08 0,0.16 z m -0.08,1.08 q -0.08,-0.08 0,-0.12 0,0 0.16,0.08 -0.08,0.12 -0.16,0.04 z m 0,0 0,0.04 0,-0.04 z m 0,0.04 q -0.04,0.04 -0.12,0 l 0.12,0 z m -3.04,6.12 q -0.08,-0.08 -0.08,-0.12 0,-0.04 0,-0.04 0.04,-0.04 0.04,-0.12 0.12,0.12 0.12,0.16 0.08,0.08 0,0.08 0,0 -0.08,0.04 z" />
      <path
         id="path4138"
         style=""
         d="m 38.049688,1022.1978 q 0.16,-0.04 0.36,0.16 -0.08,0.12 -0.16,0.24 -0.04,0.08 -0.12,0.2 -0.4,0.16 -0.8,0.36 -0.36,0.2 -0.68,0.4 0,0.12 0.12,0.12 l 0.32,0 0.04,0.04 0,0.08 q -0.08,0.08 -0.16,0.08 -0.36,0.16 -0.68,0.2 -0.2,0.08 -0.4,0.16 -0.16,0.08 -0.36,0.28 l 0.12,0.24 q -0.4,0.08 -0.68,0.16 -0.12,0.08 -0.28,0.16 -0.12,0.08 -0.28,0.16 0,0.08 -0.08,0.24 -0.08,0.16 -0.16,0.2 -0.2,0.08 -0.32,0.2 -0.12,0.12 -0.24,0.28 -0.12,0.16 -0.28,0.16 -0.36,0.04 -0.52,0.4 -0.04,0.12 -0.28,0.28 -0.12,0.04 -0.28,0.08 -0.12,0.04 -0.24,0.16 l -0.08,0 q -0.2,-0.04 -0.36,0.08 -0.12,0.08 -0.28,0.16 -0.32,0.24 -0.72,0.24 -0.48,0 -0.68,0.52 -0.08,0.2 -0.24,0.36 -0.12,0.16 -0.32,0.36 l 0.36,0 q 0,0.04 0,0.08 0.04,0 0.04,0.04 -0.08,0.16 -0.2,0.32 -0.08,0.12 0,0.32 -0.12,-0.04 -0.24,-0.04 -0.08,0.08 -0.04,0.12 0.08,0 0.08,0.08 l 0,0.08 q -0.28,0.16 -0.36,0.56 0.08,0.04 0.2,0.16 l 0,0.08 q -0.08,0.08 -0.2,0.16 -0.08,0.04 -0.2,0.08 -0.32,0.08 -0.32,0.36 0,0.08 -0.08,0.2 -0.04,0.08 -0.08,0.16 0.08,0.08 0.2,0 0.08,-0.08 0.08,-0.12 0.04,-0.08 0.12,-0.16 0.08,-0.08 0.16,-0.24 0.08,0.08 0.04,0.16 0,0.08 0.04,0.16 l 0.04,0.04 q 0.28,-0.12 0.52,-0.2 0.28,-0.12 0.6,-0.24 0.4,-0.16 0.8,-0.28 0.4,-0.16 0.8,-0.32 0.2,-0.08 0.36,-0.12 0.2,-0.04 0.4,-0.12 0.36,-0.08 0.52,-0.04 0.08,0 0.16,0 0.08,-0.04 0.16,-0.04 0.08,0.04 0.2,0.16 -0.36,0.2 -0.64,0.4 -0.08,0.08 -0.08,0.16 0,0.12 0.2,0.12 0.08,-0.04 0.16,-0.04 0.12,0 0.24,-0.04 0.08,0.16 0.16,0.28 -0.04,0.04 -0.04,0.08 0,0 -0.08,0.08 -0.16,0.12 -0.32,0.28 -0.12,0.12 -0.2,0.32 -0.04,0.04 -0.12,0.08 -0.04,0.04 -0.08,0.08 -0.08,0.08 -0.16,0.12 -0.08,0 -0.16,0.08 0,0.2 0.04,0.28 l -0.08,0.08 q -0.16,0.08 -0.32,0.16 -0.12,0.08 -0.32,0.16 -0.36,0.16 -0.52,0.44 -0.12,0.2 -0.28,0.32 -0.16,0.08 -0.36,0.16 -0.24,0.12 -0.48,0.24 -0.2,0.12 -0.44,0.2 -0.08,0.04 -0.12,0.08 -0.04,0.04 -0.12,0.08 -0.16,0.08 -0.28,0.16 -0.12,0.08 -0.32,0.04 -0.16,0 -0.48,0.24 -0.16,0.16 -0.36,0.24 -0.16,0.04 -0.36,0.12 -0.2,0.08 -0.36,0.16 -0.16,0.04 -0.36,0.12 -0.16,0.08 -0.24,0.08 -0.2,0.04 -0.28,0.16 -0.08,0.08 -0.16,0.28 0.08,0.04 0.12,0.04 0.04,0 0.12,0.04 -0.16,0.2 -0.28,0.4 -0.08,0.2 -0.12,0.44 0.08,0.08 0.24,0 0.2,-0.08 0.4,-0.16 0.2,-0.12 0.4,-0.2 0.04,-0.04 0.2,-0.12 0.32,-0.04 0.52,-0.16 0.24,-0.12 0.52,-0.2 0.36,-0.16 0.68,-0.32 0.32,-0.2 0.64,-0.32 0.2,-0.08 0.4,-0.12 0.2,-0.08 0.4,-0.16 0.32,-0.08 0.6,-0.2 0.28,-0.16 0.6,-0.36 0.28,-0.12 0.52,-0.24 0.28,-0.12 0.56,-0.2 0.16,-0.08 0.24,-0.08 0.24,-0.16 0.48,-0.24 0.24,-0.12 0.52,-0.2 0.2,-0.08 0.4,-0.16 0.2,-0.12 0.4,-0.2 0.32,-0.12 0.6,-0.2 0.28,-0.12 0.6,-0.24 0.12,-0.04 0.24,-0.08 0.12,-0.04 0.24,-0.08 0.2,-0.08 0.24,0.16 -0.08,0.16 -0.24,0.28 -0.16,0.08 -0.32,0.16 -0.32,0.2 -0.6,0.36 -0.24,0.16 -0.48,0.4 -0.04,0.04 -0.2,0.12 -0.12,0.08 -0.12,0.16 0.08,0.2 0.24,0.16 0.04,0 0.36,-0.08 -0.08,0.08 -0.12,0.16 -0.04,0.04 -0.08,0.08 -0.2,0.08 -0.4,0.2 -0.2,0.08 -0.4,0.2 -0.08,0.04 -0.16,0.12 -0.08,0.04 -0.16,0.12 0.04,0.08 0.08,0.16 0.08,0.04 0,0.16 -0.08,0.12 -0.2,0.24 -0.08,0.08 -0.28,0.16 -0.16,0.08 -0.28,0.2 -0.12,0.08 -0.24,0.16 0,0.2 0.16,0.12 0.08,-0.04 0.12,-0.04 0.04,-0.04 0.12,-0.08 -0.08,0.2 -0.12,0.24 0,0.04 -0.12,0.12 -0.16,0 -0.24,0.08 -0.08,0.16 -0.24,0.24 -0.16,0.04 -0.28,0.12 -0.12,0.08 -0.28,0.12 -0.16,0.04 -0.36,0.08 -0.32,0.16 -0.44,0.24 -0.16,0.08 -0.48,0.32 l -0.08,0 q -0.12,0.12 -0.32,0.08 -0.16,-0.04 -0.24,0.16 -0.28,0.16 -0.56,0.28 -0.12,0.08 -0.24,0.12 -0.08,0.04 -0.2,0.04 -0.12,0 -0.16,0.04 -0.24,0.2 -0.52,0.32 -0.28,0.08 -0.48,0.28 -0.04,0.08 -0.24,0.08 -0.04,0.08 -0.08,0.16 0,0.04 -0.08,0.12 -0.56,0.32 -1.12,0.6 -0.56,0.24 -1.12,0.48 -0.12,0.08 -0.24,0.08 -0.12,0 -0.24,0.04 -0.2,0.08 -0.44,0.12 -0.24,0.04 -0.48,0.12 -0.08,0 -0.08,0.08 -0.04,0.24 -0.32,0.52 -0.08,0.04 -0.12,0.12 0,0.04 -0.08,0.12 -0.12,0.32 -0.32,0.64 -0.04,0.08 -0.08,0.12 -0.04,0 -0.08,0.04 -0.12,-0.08 -0.08,-0.16 0.08,-0.12 0,-0.2 -0.16,0 -0.16,0.2 -0.08,0.16 -0.16,0.48 0,0.16 -0.04,0.28 -0.04,0.12 -0.12,0.28 -0.16,-0.08 -0.08,-0.24 0.08,-0.4 0.16,-0.68 0,-0.04 -0.04,-0.08 0,-0.04 0,-0.12 -0.2,0.28 -0.24,0.6 -0.04,0.28 -0.24,0.52 l -0.24,-0.12 -0.08,0.08 -0.12,0.6 q -0.08,0 -0.16,0 -0.08,0.04 -0.16,0.04 -0.04,0.08 -0.08,0.12 -0.04,0.08 -0.08,0.16 -0.12,0.28 -0.4,0.32 l -0.48,0 q -0.08,0 -0.2,-0.12 -0.12,-0.08 -0.12,-0.2 -0.04,-0.2 -0.04,-0.4 0,-0.2 0,-0.4 0.04,-0.32 0.08,-0.64 0.04,-0.32 0,-0.64 0,0 0,-0.04 0.12,-0.2 0.08,-0.44 -0.04,-0.28 0.08,-0.52 0.04,-0.32 0.16,-0.6 0.12,-0.32 0.08,-0.64 0.12,-0.28 0.04,-0.52 -0.08,-0.24 -0.16,-0.48 -0.04,-0.04 -0.04,-0.12 0.16,-0.24 0.4,-0.28 0.16,-0.04 0.24,-0.24 0.08,-0.36 0.16,-0.72 0.12,-0.36 0.24,-0.72 0.08,-0.2 0.16,-0.4 0.08,-0.2 0.12,-0.4 0.04,-0.32 0.2,-0.68 -0.12,-0.16 -0.24,-0.28 -0.12,-0.16 -0.28,-0.36 0.16,-0.08 0.2,-0.12 0.2,-0.08 0.32,-0.16 0.16,-0.08 0.36,-0.16 0.16,-0.12 0.28,-0.32 0.08,-0.32 0.2,-0.56 0.16,-0.28 0.28,-0.6 0.08,-0.16 0.16,-0.32 0.08,-0.16 0.12,-0.36 0,-0.12 0.08,-0.2 0.12,-0.12 0.12,-0.24 0.04,-0.28 0.28,-0.52 0.24,-0.24 0.2,-0.44 0,-0.04 0.08,-0.2 0.08,-0.12 0.12,-0.24 0.08,-0.12 0.16,-0.24 0.04,-0.04 0.04,-0.16 0.08,-0.28 0.08,-0.28 0.2,-0.2 0.24,-0.44 0.04,-0.28 0.16,-0.48 0.24,-0.44 0.44,-0.88 0.08,-0.16 0.08,-0.16 0.2,-0.28 0.32,-0.56 0.12,-0.28 0.24,-0.56 0.04,-0.04 0.04,-0.08 0,-0.04 0.04,-0.08 0.2,-0.24 0.2,-0.68 l 0,-0.2 q 0.12,-0.08 0.2,-0.2 0.12,-0.16 0.28,-0.28 0.04,-0.04 0.12,-0.2 0.08,-0.2 0.16,-0.36 0.08,-0.2 0.16,-0.4 0.08,-0.08 0.08,-0.2 0,-0.12 0.04,-0.2 0.08,-0.36 0.44,-0.48 l 0.08,0 q 0.32,-0.16 0.72,0.04 0.2,0.12 0.4,0.2 0.24,0.08 0.44,0.2 0.2,0.08 0.36,0.12 0.16,0 0.36,0.08 0.08,0.04 0.28,-0.04 0.4,-0.16 0.76,-0.32 0.4,-0.16 0.8,-0.32 0.44,-0.2 0.84,-0.36 0.4,-0.16 0.84,-0.32 0.2,-0.08 0.4,-0.16 0.2,-0.08 0.4,-0.16 0.2,-0.08 0.44,-0.12 0.24,-0.08 0.44,-0.16 l 0.6,-0.24 q 0.52,-0.28 1.32,-0.4 0.28,-0.08 0.52,-0.12 0.28,-0.04 0.56,0 0.2,0 0.28,0.04 0.08,0.08 0.12,0.16 -0.08,0.04 -0.2,0.08 -0.08,0.04 -0.16,0.08 -0.08,0.04 -0.16,0.04 -0.08,0 -0.16,0.08 -0.08,0 -0.08,0.12 0,0.04 0.08,0.12 0.08,0 0.16,0.04 0.08,0 0.16,0 z m -13.04,10.08 q 0.08,0 0.08,-0.12 -0.08,-0.08 -0.08,-0.12 -0.12,0.04 -0.12,0.16 0,0.16 0.12,0.08 z m 1,3.8 q 0.04,-0.04 0.04,-0.2 -0.4,0.08 -0.44,0.32 -0.04,0.16 -0.04,0.28 0,0.12 -0.08,0.24 -0.08,0.12 -0.08,0.28 0,0.16 -0.08,0.28 -0.04,0 -0.04,0.08 0.04,0.04 0.08,0.04 0.12,0 0.12,-0.04 0.16,-0.32 0.28,-0.64 0.16,-0.32 0.24,-0.64 z m 0.36,-3.72 q 0.08,-0.16 -0.08,-0.16 -0.12,0.16 -0.16,0.32 -0.04,0.04 -0.04,0.16 0.12,-0.08 0.16,-0.16 0.04,-0.08 0.12,-0.16 z m 1.4,-0.2 q 0.04,-0.12 0.04,-0.4 -0.12,0.12 -0.16,0.24 -0.04,0.12 -0.12,0.2 0.24,0.12 0.24,-0.04 z" />
      <path
         id="path4140"
         style=""
         d="m 42.952188,1029.5578 0,-0.04 0,0.04 z m -0.28,0.28 q 0,0.04 0.04,0.04 0,-0.04 0.04,-0.04 -0.04,-0.04 -0.04,-0.04 -0.04,0.04 -0.04,0.04 z m 6,-4.12 -0.04,0 -0.04,0 0,0.04 q 0.04,0 0.04,0 0,-0.04 0.04,-0.04 z m -0.32,-1.44 0.24,0 q -0.4,-0.12 -0.72,-0.04 0.08,0.04 0.28,0.04 l 0.2,0 z m -0.88,-0.08 -0.4,0 q -0.4,-0.04 -0.8,0 -0.36,0.04 -0.76,0.12 -0.24,0.08 -0.28,0.24 0.08,0.04 0.16,0 0.12,-0.04 0.2,-0.04 0.48,-0.08 0.92,-0.2 0.48,-0.12 1,-0.04 l 0.04,0 q 0.04,-0.04 0.08,-0.04 -0.08,-0.04 -0.16,-0.04 z m -8,3.24 q -0.12,0 -0.12,-0.08 l 0,-0.04 -0.2,0 q -0.04,-0.24 0.16,-0.32 0.2,-0.08 0.28,-0.2 0,-0.2 -0.12,-0.08 -0.16,0.04 -0.48,0.2 -0.04,0.04 -0.08,0.08 0,0.04 -0.04,0.08 l -0.12,0.24 q -0.16,0.12 -0.24,0.28 -0.08,0.12 -0.16,0.28 l -0.2,0.2 q 0,0 -0.16,0.24 -0.2,0.12 -0.52,-0.12 -0.16,-0.12 -0.32,-0.24 -0.16,-0.12 -0.28,-0.28 -0.04,-0.08 -0.08,-0.08 -0.04,-0.04 -0.12,-0.12 l 0,-0.16 q -0.08,-0.28 -0.2,-0.4 -0.16,-0.2 -0.28,-0.4 -0.08,-0.2 -0.16,-0.4 -0.08,-0.32 -0.24,-0.56 -0.16,-0.24 0.08,-0.48 0.28,-0.24 0.52,-0.44 0.24,-0.24 0.52,-0.48 0.12,-0.12 0.2,-0.16 0.2,-0.08 0.32,-0.2 0.16,-0.12 0.36,-0.24 0.12,-0.08 0.24,-0.16 0.12,-0.08 0.28,-0.16 0.04,-0.04 0.04,-0.04 0.04,0 0.08,-0.04 0.44,-0.32 0.88,-0.48 0.48,-0.16 0.92,-0.36 0.2,-0.08 0.4,-0.16 0.2,-0.12 0.4,-0.2 0.52,-0.2 1.04,-0.36 0.52,-0.16 1.08,-0.32 0.24,-0.08 0.48,-0.12 0.28,-0.08 0.56,-0.16 0.32,-0.08 0.4,-0.08 0.68,-0.08 1.32,-0.08 0.68,-0.04 1.36,0.04 0.64,0.04 1.24,0.2 0.6,0.16 1.16,0.4 0.92,0.32 1.36,1.12 0.16,0.32 0.32,0.6 0.2,0.28 0.36,0.6 0.08,0.2 0.16,0.4 0.08,0.16 0.08,0.36 0.04,0.2 0.12,0.4 0.08,0.16 0.16,0.32 0.32,0.68 0.2,1.36 -0.04,0.2 -0.08,0.4 -0.04,0.2 -0.16,0.4 -0.08,0.12 -0.12,0.28 -0.04,0.16 -0.12,0.32 -0.08,0.12 -0.16,0.28 -0.04,0.12 -0.16,0.24 -0.12,0.16 -0.24,0.36 -0.08,0.16 -0.2,0.36 -0.04,0.08 -0.08,0.12 -0.04,0 -0.08,0.08 -0.16,0.16 -0.28,0.32 -0.12,0.12 -0.32,0.24 -0.08,0.04 -0.16,0.2 -0.16,0.24 -0.28,0.32 -0.08,0.08 -0.08,0.2 0,0.12 -0.08,0.2 -0.04,0.08 -0.12,0.16 -0.08,-0.16 -0.08,-0.16 -0.24,0.04 -0.32,0.36 -0.44,0.08 -0.64,0.36 -0.08,-0.16 -0.12,-0.2 -0.28,0.08 -0.52,0.24 -0.24,0.12 -0.52,0.2 -0.04,-0.08 0,-0.08 0.04,-0.04 0.08,-0.08 0.12,-0.04 0.12,-0.24 0,-0.04 -0.04,-0.04 0,0 0,-0.04 l -0.08,0 -0.24,0.12 q -0.16,0.08 -0.2,0.08 -0.12,0 -0.2,0.08 -0.08,0.04 -0.16,0.08 -0.12,0.08 -0.16,0.12 -0.04,0.04 -0.16,0.2 l -0.08,0 -0.12,0 q 0,0.04 -0.04,0.08 0,0 0,0.04 0.08,0.16 0.12,0.32 0.08,0.16 0.16,0.32 0.08,0.2 0.12,0.44 0.04,0.24 0.04,0.48 0.04,0.36 0.04,0.72 0,0.36 -0.08,0.76 -0.08,0.44 -0.16,0.88 -0.04,0.44 -0.12,0.88 -0.04,0.32 -0.08,0.64 0,0.28 -0.04,0.6 -0.04,0 -0.08,0.04 0,0 -0.04,0 -0.12,0.08 -0.12,0.2 0,0.08 0,0.2 0.04,0.08 0.04,0.16 -0.16,0.08 -0.2,0.12 -0.04,0.04 -0.04,0.08 0.28,0.24 0.04,0.56 -0.08,0.16 -0.08,0.2 0,0.12 -0.08,0.28 -0.16,0.44 -0.44,0.64 -0.16,0 -0.16,0.16 0,0.2 -0.08,0.32 -0.04,0.12 -0.08,0.28 -0.08,0.24 -0.16,0.48 -0.08,0.2 -0.16,0.4 -0.16,0.36 -0.32,0.72 -0.12,0.32 -0.16,0.72 0,0.12 0,0.12 0.08,0.24 0.12,0.48 0.04,0.24 0.12,0.48 0,0.08 0.08,0.16 0.04,0.12 0.04,0.24 0.04,0.12 0.12,0.2 0.2,0.24 0.36,0.44 0.2,0.24 0.44,0.44 0.16,0.08 0.2,0.16 0.08,0.12 0.28,0.2 0.12,0.04 0.28,0.12 0.2,0.12 0.4,0.24 0.24,0.12 0.48,0.2 l 0.08,0.08 0,0.04 q 0,0.04 -0.08,0.04 0,0.04 -0.04,0.04 -0.04,0 -0.04,-0.04 -0.56,-0.2 -1.04,-0.48 -0.48,-0.28 -0.92,-0.64 -0.24,-0.2 -0.44,-0.44 -0.2,-0.24 -0.4,-0.48 -0.08,-0.08 -0.12,-0.16 -0.04,0.08 -0.04,0.08 0.08,0.24 0.08,0.28 0.12,0.6 0.56,1.04 0.48,0.48 0.96,0.64 0.24,0.08 0.44,0.16 0.24,0.12 0.48,0.2 0.52,0.16 1.2,0.16 0.84,0 1.76,-0.2 0.32,-0.08 0.52,0 -0.08,0.16 -0.36,0.24 -0.28,0.08 -0.4,0.28 -0.2,0.32 -0.52,0.36 -0.04,0 -0.08,0 0,0.04 -0.08,0.04 0,0.08 -0.04,0.12 0,0.08 0,0.12 -0.08,0.08 -0.08,0.08 -0.12,0.08 -0.28,0.12 -0.12,0.08 -0.24,0.16 -0.28,0.2 -0.56,0.2 -0.08,0 -0.2,0 -0.08,0.04 -0.2,0.04 0,0.08 0,0.08 0.04,0.04 0.04,0.12 -0.08,0.08 -0.2,0.04 -0.12,0 -0.2,0 -0.4,0 -0.72,0.32 -0.2,-0.04 -0.44,-0.08 -0.24,0 -0.44,0.08 l -0.12,0 q -0.6,-0.08 -1.16,-0.24 -0.56,-0.12 -1.12,-0.44 -0.2,-0.16 -0.4,-0.32 -0.16,-0.16 -0.36,-0.36 -0.12,-0.2 -0.24,-0.36 -0.12,-0.12 -0.2,-0.32 -0.2,-0.28 -0.16,-0.52 0,0 0,-0.12 -0.2,-0.52 -0.24,-1.04 0,-0.48 0.08,-1 0.04,-0.28 0.08,-0.56 0.04,-0.28 0.12,-0.56 0,-0.12 0,-0.24 0.04,-0.08 0.04,-0.2 -0.08,-0.32 -0.04,-0.64 0.04,-0.36 0.08,-0.68 0.04,-0.36 0.08,-0.72 0.04,-0.36 0.08,-0.72 0.04,-0.64 0.16,-1.24 0.16,-0.6 0.36,-1.2 0.08,-0.32 0.2,-0.6 0.16,-0.32 0.24,-0.64 0.12,-0.44 0.24,-0.88 0.12,-0.44 0.2,-0.92 0.08,-0.44 0,-0.52 -0.08,-0.08 -0.44,-0.2 -0.64,-0.2 -1.16,-0.16 -0.32,0.08 -0.52,0.08 -0.16,0.04 -0.28,0.08 -0.12,0.04 -0.28,0 -0.16,0 -0.16,0.16 0,0.24 0.08,0.36 0.08,-0.08 0.08,-0.2 0.04,-0.12 0.16,-0.12 0.04,0.2 -0.08,0.4 -0.08,0.16 -0.12,0.36 -0.04,0.08 -0.12,0.12 -0.04,0 -0.12,0.08 l -0.12,-0.12 q -0.08,-0.08 -0.12,0.08 0.12,0.12 0.24,0.04 -0.08,0.08 -0.12,0.16 -0.04,0.04 -0.12,0.12 -0.04,0.08 -0.08,0.12 0,0 -0.04,0.08 0,0.32 -0.24,0.48 -0.04,0.2 0.12,0.32 0.08,0.08 0.08,0.16 0,0.04 0,0.12 -0.08,0.24 -0.16,0.36 0,0.08 -0.08,0.16 -0.04,0.04 -0.12,0 -0.04,0 -0.12,0.08 -0.08,0.08 -0.16,0.16 -0.04,0.04 -0.12,0.12 -0.04,0.08 -0.08,0.12 -0.04,0.04 0.04,0.12 0,0.04 -0.04,0.08 -0.04,0.04 -0.04,0.08 -0.16,0.16 -0.16,0.32 0,0.08 0,0.12 0,0.04 0.08,0.12 0.04,0.04 0.04,0.24 0.08,-0.04 0.08,-0.04 0.04,0 0.12,-0.04 0,0.12 0,0.12 0,0.08 -0.04,0.16 -0.04,0.04 -0.04,0.12 -0.08,0.24 -0.24,0.48 -0.08,0.08 -0.12,0.16 0,0.08 -0.08,0.16 -0.16,0.04 -0.32,0.08 -0.12,0.04 -0.2,0.24 -0.2,-0.04 -0.24,-0.04 -0.04,-0.04 -0.16,-0.2 -0.24,0.08 -0.28,0.24 0,0.12 -0.12,0.16 -0.08,0 -0.2,0.08 0.04,0.08 0.04,0.16 0,0.04 0.04,0.12 -0.16,0.2 -0.2,0.24 -0.04,0 -0.24,0.08 0,0.16 -0.04,0.2 -0.08,0.32 -0.32,0.32 -0.08,0 -0.16,0.08 -0.08,-0.04 -0.32,-0.2 -0.08,0.2 -0.24,0.28 -0.16,0.08 -0.24,0.28 -0.04,0.04 -0.04,0.04 l -0.04,0 q -0.12,-0.04 -0.2,0.08 -0.04,0.08 -0.16,0.04 -0.08,0.12 -0.24,0.28 -0.08,0.16 -0.16,0.16 0.04,-0.08 0.04,-0.16 0,-0.08 0.04,-0.16 l 0,-0.04 q 0.04,0 0.12,-0.08 0,-0.04 0.04,-0.04 0.04,-0.04 0,-0.12 -0.08,0.08 -0.16,0.24 l 0,0.04 q -0.04,0 -0.04,0 -0.04,-0.04 -0.12,-0.04 0.2,-0.48 0.4,-0.96 0.2,-0.48 0.4,-1 -0.16,-0.16 -0.32,-0.4 -0.24,-0.28 -0.12,-0.64 0.04,-0.08 0.08,-0.16 0.04,-0.12 0.04,-0.24 -0.04,-0.2 0.08,-0.36 0.08,-0.16 0.16,-0.36 0.08,-0.2 0.2,0 0.08,0.08 0.16,0.12 0.08,0 0.16,0.08 0.2,-0.2 0.24,-0.44 0.08,-0.28 0.16,-0.48 l 0.12,-0.36 q 0.08,-0.2 0.12,-0.36 0.04,-0.16 0.08,-0.36 0.16,-0.32 0.28,-0.88 0.12,-0.24 0.24,-0.6 -0.08,0 -0.12,0 -0.04,-0.04 -0.08,-0.04 0,-0.04 -0.04,-0.08 0,-0.04 0,-0.08 l -0.16,0 q -0.04,-0.08 -0.04,-0.08 0.16,-0.16 0.28,-0.28 0.12,-0.16 0.28,-0.28 0.12,-0.08 0.2,-0.36 0.16,-0.44 0.28,-0.88 0.16,-0.44 0.28,-0.88 0.16,-0.52 0.36,-1 0.2,-0.48 0.44,-0.96 0,-0.04 0,-0.08 0.04,-0.04 0.04,-0.08 -0.04,-0.16 0,-0.28 0.08,-0.16 0.16,-0.28 0.08,-0.16 0.08,-0.32 0.04,-0.08 0.12,-0.16 0.16,-0.24 0.12,-0.44 0,-0.04 0,-0.08 0.04,-0.04 0.04,-0.08 0.28,-0.28 0.32,-0.6 0,-0.12 0.04,-0.2 0.08,-0.12 0.16,-0.2 0.12,-0.2 0.08,-0.44 l -0.04,0 z m 0.04,0 q 0.2,0 0.24,-0.04 0.12,-0.12 0.08,-0.32 l 0,-0.04 q 0.04,-0.04 0.04,-0.04 0.04,0 0.08,-0.04 l 0,-0.08 q -0.04,0 -0.08,0.04 0,0.04 -0.04,0.08 0,0 0,0.04 l 0,0.04 q -0.4,0 -0.48,0.24 l 0,0.04 q 0.12,0 0.12,0.08 l 0.04,0 z m 1.2,8 q 0.04,0 0.04,0.04 -0.04,0 -0.08,0.04 0.04,0 0.04,0 0,-0.04 0.04,-0.04 l 0,-0.04 -0.04,0 z m -2.16,-6.04 q -0.04,-0.04 -0.04,-0.04 l 0,0.08 q 0.04,0 0.04,-0.04 z m -3.04,7.84 -0.04,0 q 0.04,0.04 0.04,0.08 0.04,-0.04 0.04,-0.04 -0.04,-0.04 -0.04,-0.04 z m 10.24,2 q -0.08,0.04 -0.08,0.04 0,0 0,0.12 0.08,-0.08 0.08,-0.08 0,0 0,-0.08 z m -0.24,0.8 q -0.08,0.12 -0.12,0.28 0.12,-0.16 0.12,-0.28 z m -6.48,-2.64 q 0.2,-0.04 0.08,-0.32 -0.2,0.04 -0.32,0.16 -0.08,0.12 -0.16,0.28 -0.04,0.12 0.04,0.2 0.08,-0.08 0.16,-0.16 0.08,-0.08 0.2,-0.16 z m 0.28,-0.8 0.04,0 q -0.04,0 -0.04,-0.04 l 0,0.04 z m 0.2,-0.96 q 0.12,-0.12 0.08,-0.24 -0.12,0.12 -0.08,0.24 z m 3.6,-9.44 q -0.08,0.2 -0.12,0.36 0,0.12 -0.08,0.32 0,0.04 0.08,0.12 l 0.08,-0.04 q 0.2,-0.24 0.32,-0.48 0.12,-0.28 0.04,-0.6 l -0.12,0 q -0.2,0.12 -0.2,0.32 z m 2.76,1.88 q -0.12,0.2 -0.28,0.36 -0.16,0.16 -0.32,0.32 -0.12,0.2 -0.28,0.36 -0.16,0.12 -0.32,0.28 -0.2,0.2 -0.48,0.32 -0.24,0.12 -0.52,0.28 -0.12,0.08 -0.28,0.16 -0.12,0.08 -0.28,0.16 -0.2,0.2 -0.48,0.32 -0.28,0.12 -0.56,0.24 -0.04,-0.04 0.04,-0.12 0.08,-0.12 0.32,-0.36 0.04,-0.04 0.04,-0.08 0,-0.04 0.04,-0.12 -0.08,-0.04 -0.12,-0.04 0,0 -0.08,-0.04 0,-0.04 -0.04,-0.04 0,-0.04 0,-0.08 0.12,-0.28 0.2,-0.52 0.12,-0.28 0.24,-0.56 0.08,-0.2 0.16,-0.4 0.08,-0.2 0.04,-0.4 0,-0.08 0.04,-0.12 0.08,-0.16 0.08,-0.28 0.04,-0.16 0.04,-0.36 0,-0.12 0.12,-0.24 0.16,-0.08 0.2,-0.2 0.08,-0.16 0.16,-0.36 l 0.12,-0.24 q 0.12,-0.24 0.28,-0.12 0.16,0.12 0.24,0.04 0.16,-0.12 0.12,-0.28 -0.04,-0.08 -0.04,-0.16 0,-0.08 -0.12,-0.16 -0.08,0.08 -0.2,0.08 -0.04,-0.04 -0.04,-0.04 0,-0.12 0.04,-0.2 0.04,-0.12 0,-0.28 -0.08,-0.2 0.2,-0.28 0.12,-0.04 0.24,-0.08 0.12,-0.04 0.24,-0.08 l 0.12,-0.12 q -0.12,-0.12 -0.2,-0.04 -0.08,0 -0.2,0.04 -0.12,0.04 -0.2,0.04 -0.08,0 -0.12,-0.04 0,-0.08 0.04,-0.12 0.08,-0.08 0.16,-0.16 0.12,-0.08 0.28,-0.08 0.12,0 0.2,-0.08 0.28,-0.32 0.72,-0.2 0.16,0 0.28,0 0.16,0 0.36,-0.04 0.08,0 0.16,-0.04 0.08,-0.08 0.16,-0.12 0.08,0 0.16,0.04 0.08,0 0.16,0 l 0.24,0 q 0.32,-0.12 0.6,-0.04 0.08,0.08 0.2,0 0.56,0 1.16,0.12 0.08,0.04 0.16,0.08 0.12,0.04 0.2,0.08 0.08,0.04 0.12,0.04 0.08,0 0.16,0.04 0.16,0.08 0.24,0.24 -0.24,0.08 -0.44,-0.04 -0.2,-0.12 -0.4,-0.08 0.2,0.16 0.44,0.16 0.24,-0.04 0.44,0.16 -0.04,0.2 -0.12,0.36 -0.08,0.12 -0.16,0.28 -0.12,0.2 -0.28,0.44 -0.12,0.2 -0.24,0.4 -0.16,0.16 -0.28,0.24 0,0 -0.12,0 -0.04,0.08 -0.04,0.12 0,0.04 -0.04,0.12 -0.04,-0.08 0.08,-0.24 0.16,-0.16 0.16,-0.32 -0.12,0.08 -0.24,0.16 -0.08,0.04 -0.16,0.12 -0.08,0.08 -0.16,0.16 -0.08,0.08 -0.16,0.16 -0.08,0.08 -0.16,0.16 -0.08,0.04 -0.16,0.12 l -0.36,0.36 0,-0.2 0.04,-0.04 q 0.28,-0.24 0.48,-0.48 0.24,-0.28 0.48,-0.56 -0.08,-0.04 -0.12,0 0,0.04 -0.04,0.04 -0.52,0.36 -1.04,0.88 -0.32,0.28 -0.6,0.6 -0.28,0.28 -0.64,0.52 -0.08,0 -0.08,0.08 z m 0.04,0.48 q 0.04,0 0.04,-0.04 -0.04,0 -0.04,0.04 z m -0.72,4.24 0.24,0.24 q 0.44,0.4 0.64,1.08 0.04,0.12 0.12,0.44 0.04,0.04 0.04,0.08 0.04,0.04 0.08,0.08 0.04,-0.04 0.04,-0.08 -0.04,-0.12 -0.04,-0.28 0,-0.16 -0.08,-0.28 -0.08,-0.16 -0.08,-0.48 0.04,-0.32 -0.08,-0.56 -0.08,-0.28 -0.2,-0.56 0,-0.04 -0.08,-0.12 -0.2,0.08 -0.52,0.16 -0.2,0.08 -0.08,0.28 z m -1.92,15.8 q 0.08,-0.04 0,-0.12 -0.16,-0.2 -0.32,-0.44 -0.12,-0.24 -0.28,-0.44 -0.04,-0.04 -0.08,-0.08 0,-0.04 -0.08,-0.12 -0.12,-0.2 -0.36,-0.2 l 0,0.04 q -0.08,0.2 0.04,0.24 0.16,0.08 0.16,0.28 0,0.04 -0.08,0.04 -0.08,0.04 0,0.16 0.08,-0.04 0.12,-0.08 0.04,-0.04 0.12,-0.08 0.28,0.28 0.4,0.44 l 0.36,0.36 z" />
      <path
         id="path4142"
         style=""
         d="m 80.570938,1022.8378 q 0.12,0.04 0.36,0.04 0.28,0 0.4,0.2 -0.08,0.12 -0.16,0.28 -0.04,0.12 -0.12,0.24 -0.48,0.16 -0.92,0.4 -0.4,0.2 -0.8,0.48 0,0.12 0.12,0.12 l 0.36,0 q 0.08,0 0.08,0.08 0,0 -0.04,0.08 -0.08,0.08 -0.12,0.08 l -0.84,0.24 q -0.2,0.08 -0.44,0.2 -0.24,0.08 -0.44,0.28 0.08,0.12 0.16,0.28 -0.2,0.04 -0.4,0.08 -0.16,0.04 -0.36,0.12 -0.2,0.08 -0.36,0.2 -0.12,0.08 -0.28,0.16 -0.04,0.08 -0.08,0.16 0,0.04 -0.04,0.12 -0.12,0.2 -0.2,0.2 -0.2,0.12 -0.36,0.28 -0.12,0.12 -0.28,0.32 -0.08,0.12 -0.28,0.2 -0.48,0.08 -0.6,0.44 -0.12,0.2 -0.36,0.28 -0.16,0.08 -0.32,0.16 -0.16,0.04 -0.28,0.12 -0.04,0.04 -0.08,0.04 -0.24,-0.04 -0.4,0.08 -0.16,0.08 -0.32,0.2 -0.4,0.28 -0.84,0.28 -0.64,0 -0.8,0.6 -0.08,0.24 -0.28,0.44 -0.16,0.2 -0.36,0.4 0.2,-0.04 0.44,-0.04 l 0,0.12 q -0.08,0.2 -0.2,0.36 -0.08,0.16 -0.04,0.4 -0.08,0 -0.12,0 -0.04,-0.04 -0.12,-0.04 -0.08,0.08 -0.04,0.12 0.08,0.04 0.08,0.12 0,0.08 -0.04,0.08 -0.32,0.24 -0.36,0.64 l 0.2,0.2 0,0.08 q -0.12,0.08 -0.24,0.16 -0.08,0.08 -0.24,0.12 -0.32,0.08 -0.36,0.44 0,0.08 -0.08,0.2 -0.04,0.12 -0.08,0.2 0.08,0.12 0.2,0 0.12,-0.08 0.28,-0.32 0.04,-0.08 0.08,-0.12 0.04,-0.08 0.12,-0.16 0.08,0.08 0.04,0.2 0,0.08 0,0.16 0.04,0.04 0.08,0.04 0.32,-0.12 0.6,-0.24 0.32,-0.12 0.64,-0.24 0.48,-0.2 0.96,-0.36 0.48,-0.16 0.92,-0.32 0.24,-0.08 0.44,-0.12 0.24,-0.08 0.44,-0.16 0.32,-0.12 0.6,-0.08 0.08,0.04 0.16,0 0.12,-0.04 0.2,-0.04 0.08,0.04 0.24,0.2 -0.2,0.12 -0.4,0.24 -0.16,0.08 -0.32,0.2 -0.12,0.08 -0.12,0.2 0,0.12 0.2,0.12 0.12,0 0.2,0 0.12,-0.04 0.28,-0.08 0.04,0.08 0.2,0.32 -0.04,0.04 -0.08,0.08 0,0.04 -0.04,0.08 -0.2,0.2 -0.36,0.36 -0.16,0.12 -0.28,0.36 -0.04,0.08 -0.12,0.12 -0.04,0 -0.12,0.08 l -0.36,0.24 q 0.04,0.12 0.04,0.32 0,0 -0.04,0.08 -0.36,0.24 -0.76,0.36 -0.2,0.08 -0.36,0.2 -0.12,0.08 -0.24,0.28 -0.2,0.4 -0.76,0.6 -0.28,0.12 -0.52,0.28 -0.24,0.12 -0.52,0.24 -0.08,0.04 -0.16,0.08 -0.04,0 -0.12,0.08 -0.16,0.08 -0.32,0.16 -0.16,0.08 -0.36,0.08 -0.24,0 -0.56,0.24 -0.32,0.32 -0.84,0.44 -0.2,0.08 -0.4,0.16 -0.2,0.08 -0.4,0.16 -0.08,0.04 -0.16,0.08 -0.04,0.04 -0.12,0.04 -0.24,0 -0.36,0.16 -0.08,0.12 -0.16,0.32 0.16,0.08 0.28,0.12 -0.16,0.2 -0.28,0.44 -0.12,0.2 -0.2,0.48 0.08,0.12 0.28,0 0.48,-0.16 0.92,-0.4 0.08,-0.04 0.12,-0.08 0.04,-0.04 0.12,-0.04 0.32,-0.04 0.6,-0.16 0.28,-0.16 0.6,-0.28 0.4,-0.16 0.76,-0.36 0.36,-0.2 0.76,-0.36 0.24,-0.08 0.44,-0.16 0.24,-0.08 0.48,-0.16 0.36,-0.12 0.68,-0.28 0.36,-0.16 0.72,-0.36 0.32,-0.16 0.6,-0.28 0.32,-0.12 0.64,-0.28 0.08,0 0.24,-0.08 0.64,-0.32 1.16,-0.48 0.24,-0.08 0.48,-0.2 0.24,-0.12 0.48,-0.2 0.32,-0.12 0.68,-0.24 0.36,-0.16 0.72,-0.28 0.32,-0.16 0.52,-0.2 0.24,-0.08 0.28,0.16 -0.12,0.2 -0.32,0.32 -0.16,0.12 -0.36,0.24 -0.32,0.2 -0.64,0.4 -0.28,0.2 -0.56,0.44 -0.08,0.08 -0.24,0.16 -0.16,0.08 -0.12,0.2 0,0.2 0.28,0.2 0.08,-0.04 0.16,-0.04 0.08,0 0.24,-0.08 -0.2,0.2 -0.28,0.24 -0.2,0.12 -0.44,0.24 -0.24,0.12 -0.44,0.24 -0.12,0.08 -0.2,0.16 -0.08,0.04 -0.16,0.12 0.04,0.08 0.08,0.16 0.08,0.08 0,0.2 -0.12,0.16 -0.24,0.28 -0.12,0.12 -0.32,0.2 -0.16,0.08 -0.32,0.2 -0.12,0.12 -0.28,0.2 0,0.24 0.2,0.16 0.16,-0.08 0.24,-0.16 -0.08,0.28 -0.12,0.32 0,0.04 -0.16,0.08 -0.08,0.04 -0.16,0.08 -0.04,0 -0.08,0.04 -0.08,0.2 -0.28,0.28 -0.16,0.04 -0.32,0.12 -0.16,0.12 -0.36,0.16 -0.16,0.04 -0.36,0.12 -0.32,0.08 -0.56,0.24 -0.12,0.08 -0.28,0.2 -0.12,0.08 -0.28,0.16 0,0 -0.08,0.04 -0.12,0.12 -0.36,0.08 -0.2,-0.04 -0.28,0.2 -0.16,0.08 -0.32,0.16 -0.12,0.04 -0.32,0.12 -0.28,0.2 -0.52,0.2 -0.12,0 -0.16,0.04 -0.28,0.24 -0.6,0.36 -0.28,0.12 -0.56,0.36 -0.08,0.04 -0.16,0.04 -0.04,0 -0.12,0.04 -0.04,0.08 -0.08,0.16 0,0.08 -0.08,0.16 -0.64,0.36 -1.28,0.64 -0.64,0.32 -1.32,0.6 -0.16,0.08 -0.56,0.16 -0.48,0.12 -1.08,0.24 -0.04,0 -0.04,0.04 l 0,0.08 q -0.12,0.4 -0.4,0.56 -0.16,0.16 -0.2,0.32 -0.08,0.2 -0.2,0.36 -0.08,0.16 -0.2,0.36 -0.04,0.08 -0.08,0.08 -0.04,0.04 -0.12,0.12 -0.12,-0.12 -0.08,-0.24 0.08,-0.12 0,-0.2 -0.12,0 -0.16,0.04 0,0.08 -0.04,0.16 -0.04,0.16 -0.08,0.28 -0.04,0.16 -0.04,0.32 -0.08,0.16 -0.12,0.32 0,0.16 -0.08,0.28 -0.2,-0.04 -0.12,-0.24 0.04,-0.2 0.08,-0.4 0.04,-0.2 0.08,-0.4 l 0,-0.2 q -0.2,0.32 -0.28,0.64 -0.04,0.36 -0.32,0.64 -0.08,-0.04 -0.12,-0.08 -0.04,-0.04 -0.12,-0.08 -0.08,0.08 -0.08,0.12 -0.04,0.16 -0.08,0.32 -0.04,0.16 -0.08,0.36 -0.08,0.04 -0.2,0.04 -0.08,0 -0.2,0.04 -0.04,0.08 -0.08,0.16 0,0.08 -0.08,0.16 -0.16,0.32 -0.44,0.32 -0.2,0.04 -0.56,0.04 -0.12,0 -0.24,-0.12 -0.12,-0.12 -0.12,-0.24 -0.04,-0.24 -0.08,-0.48 0,-0.2 0.04,-0.44 0.04,-0.4 0.08,-0.76 0.04,-0.36 0,-0.72 l -0.04,-0.04 q 0.2,-0.28 0.12,-0.6 -0.08,-0.28 0.08,-0.52 0.04,-0.4 0.16,-0.76 0.16,-0.32 0.16,-0.72 0.12,-0.32 0.04,-0.56 -0.08,-0.28 -0.2,-0.56 -0.04,-0.04 -0.04,-0.16 0.12,-0.16 0.44,-0.32 0.24,-0.04 0.28,-0.28 0.08,-0.24 0.12,-0.48 0.08,-0.24 0.16,-0.48 -0.04,0.04 -0.08,0.08 0,0.04 -0.08,0.08 -0.12,0.04 -0.16,-0.04 -0.12,0 0,-0.12 0.08,-0.08 0.2,-0.16 0.12,-0.12 0.2,-0.2 0,-0.04 0,-0.04 0.04,-0.04 0.04,-0.08 -0.2,-0.08 -0.4,0.04 -0.16,0.08 -0.32,0.16 -0.12,0.08 -0.12,0.2 -0.04,0.12 -0.04,0.36 -0.56,0.12 -1.04,0.48 l 0,0.2 q 0,0.24 -0.2,0.16 -0.24,-0.08 -0.32,-0.08 -0.08,0.08 -0.16,0.16 -0.08,0.04 -0.16,0.12 l -0.36,0.12 q -0.12,-0.04 -0.44,-0.12 -0.44,0.4 -0.96,0.44 -0.08,0 -0.12,0.04 -0.32,0.2 -0.68,0.2 -0.36,-0.04 -0.72,-0.08 -0.32,-0.04 -0.56,-0.12 -0.24,-0.12 -0.48,-0.24 -0.2,-0.12 -0.44,-0.2 -0.2,-0.12 -0.4,-0.28 -0.16,-0.08 -0.28,-0.2 -0.12,-0.16 -0.28,-0.24 -0.44,-0.32 -0.72,-0.68 -0.28,-0.36 -0.6,-0.8 -0.08,-0.16 -0.16,-0.28 -0.08,-0.16 -0.16,-0.36 -0.08,-0.2 -0.2,-0.32 -0.08,-0.12 -0.16,-0.28 -0.12,-0.2 -0.24,-0.36 -0.12,-0.2 -0.28,-0.4 -0.08,-0.24 -0.24,-0.36 -0.2,-0.2 -0.24,-0.4 -0.24,-0.8 -0.36,-1.6 -0.08,-0.8 0,-1.64 0.12,-0.96 0.36,-1.84 0.24,-0.92 0.68,-1.76 0.2,-0.36 0.36,-0.72 0.2,-0.36 0.4,-0.72 0.24,-0.68 0.68,-1.24 0.32,-0.44 0.6,-0.88 0.32,-0.48 0.72,-0.88 0.08,-0.08 0.12,-0.16 0.04,-0.08 0.12,-0.16 0.44,-0.6 0.92,-1.16 0.52,-0.56 1.04,-1.12 0.32,-0.36 0.68,-0.64 0.36,-0.32 0.72,-0.64 0.2,-0.16 0.4,-0.28 0.2,-0.12 0.4,-0.24 0.24,-0.12 0.44,-0.24 0.24,-0.16 0.44,-0.28 0.28,-0.16 0.52,-0.28 0.28,-0.16 0.52,-0.32 0.08,-0.04 0.08,-0.04 0.04,0 0.12,-0.04 0.16,0.08 0.32,0.16 0.16,0.08 0.36,0.04 0.36,0 0.64,0.28 0.16,0.16 0.4,0.48 0,0.12 0,0.12 -0.2,0.28 -0.2,0.36 0.04,0.04 0.28,0.24 0.24,0.16 0.32,0.16 0.32,0.08 0.56,0.2 0.28,0.08 0.52,0.24 0.2,0.16 0.4,0.08 0.28,0 0.44,0.12 0.2,0.08 0.4,0.24 0.24,0.24 0.44,0.48 0.24,0.24 0.4,0.52 0.04,0.12 0.08,0.2 0.08,0.08 0.16,0.16 0.44,0.6 0.88,1.36 0.08,0.2 0.16,0.4 0.08,0.2 0.12,0.4 0,0.08 0.08,0.16 0.2,0.28 0.12,0.56 0,0.28 0.08,0.4 0.04,0.04 0.04,0.12 l 0,0.04 q 0.12,-0.24 0.12,-0.56 l 0,-0.28 q 0.16,-0.08 0.24,-0.24 0.12,-0.16 0.32,-0.28 0.04,-0.04 0.04,-0.08 0.04,-0.08 0.08,-0.16 0.2,-0.52 0.4,-0.88 0.08,-0.12 0.08,-0.24 0,-0.12 0.04,-0.2 0.08,-0.44 0.48,-0.56 0.08,0 0.12,-0.04 0.4,-0.16 0.84,0.08 0.2,0.12 0.44,0.24 0.28,0.08 0.52,0.2 0.2,0.08 0.4,0.12 0.24,0 0.44,0.12 0.08,0.04 0.32,-0.04 0.44,-0.2 0.88,-0.36 0.48,-0.2 0.92,-0.4 0.48,-0.2 0.96,-0.36 0.48,-0.2 0.96,-0.4 0.24,-0.08 0.48,-0.16 0.24,-0.12 0.44,-0.2 0.28,-0.08 0.52,-0.16 0.24,-0.12 0.48,-0.2 0.2,-0.08 0.36,-0.12 0.16,-0.08 0.36,-0.16 0.8,-0.32 1.52,-0.44 0.32,-0.08 0.6,-0.12 0.32,-0.04 0.64,0 0.2,0 0.32,0.04 -0.04,0 0.16,0.2 -0.24,0.08 -0.44,0.16 l -0.36,0.12 q -0.12,0.08 -0.12,0.16 0.12,0.12 0.12,0.12 z m -19.56,2 q -0.2,-0.04 -0.48,0.24 0.08,0.08 0.24,0.16 0.72,0.2 1.4,0.72 0.12,0.08 0.24,0.16 0.12,0.04 0.32,0.08 -0.16,-0.36 -0.32,-0.64 -0.16,-0.32 -0.4,-0.56 -0.24,-0.28 -0.6,-0.16 -0.16,0.04 -0.4,0 z m -4.64,17.12 q 0.08,-0.08 0.16,-0.12 -0.08,-0.08 -0.12,-0.12 -0.04,-0.04 -0.12,-0.08 -0.36,-0.2 -0.76,-0.16 -0.36,0.04 -0.76,0.12 -0.12,0 -0.12,0.16 -0.04,0.12 0.12,0.2 0.32,0.12 0.64,0.2 0.36,0.04 0.68,-0.12 0.08,-0.04 0.12,-0.04 0.08,0 0.16,-0.04 z m 4.72,-6.56 q 0.08,-0.16 0.32,-0.4 0.16,-0.24 0.32,-0.48 0.16,-0.24 0.24,-0.56 0,-0.08 0.04,-0.2 0.08,-0.12 0.12,-0.2 l 0.36,-0.72 q 0.2,-0.44 0.24,-0.88 0.08,-0.44 0.16,-0.88 0.04,-0.08 0.04,-0.16 0,-0.12 0.08,-0.2 0.12,-0.16 0.12,-0.28 0,-0.16 0,-0.36 l 0,-2.36 q 0,-0.44 -0.04,-0.56 -0.04,-0.12 -0.28,-0.44 -0.12,-0.16 -0.28,-0.28 -0.16,-0.16 -0.32,-0.28 -0.2,-0.12 -0.44,-0.2 -0.2,-0.08 -0.44,-0.16 -0.08,-0.04 -0.2,-0.08 -0.12,-0.04 -0.24,0 -0.24,0.08 -0.48,-0.08 -0.36,-0.24 -0.72,0.16 -0.16,0.2 -0.32,0.4 -0.16,0.2 -0.32,0.4 -0.36,0.36 -0.52,0.72 -0.4,0.08 -0.52,0.4 -0.08,0.08 -0.12,0.12 0,0.04 -0.08,0.08 -0.28,0.24 -0.48,0.56 -0.08,0.24 -0.28,0.24 -0.16,0 -0.32,0.16 -0.2,0.28 -0.36,0.56 -0.12,0.24 -0.32,0.52 -0.04,0.08 -0.04,0.36 0,0 -0.04,0.08 -0.16,0.2 -0.28,0.4 -0.12,0.16 -0.32,0.36 -0.12,0.16 -0.24,0.32 -0.08,0.12 -0.16,0.32 -0.12,0.36 -0.32,0.72 -0.2,0.32 -0.28,0.72 -0.04,0.12 -0.12,0.24 -0.08,0.08 -0.08,0.2 -0.04,0.16 -0.12,0.24 -0.08,0.08 -0.16,0.16 0.16,0.36 -0.08,0.8 -0.12,0.24 -0.12,0.44 -0.08,0.32 -0.08,0.56 -0.24,1.68 1.04,2.84 0.4,0.36 0.96,0.24 l 1.08,-0.36 q 0.52,-0.16 1,-0.4 0.52,-0.24 1,-0.52 0.32,-0.16 0.6,-0.28 0.28,-0.16 0.6,-0.36 0.08,-0.04 0.24,-0.2 0.28,-0.36 0.52,-0.68 0.24,-0.36 0.44,-0.76 z m 5.96,3.52 q 0.04,-0.04 0.04,-0.24 -0.44,0.08 -0.48,0.36 -0.04,0.16 -0.04,0.32 0,0.16 -0.12,0.32 -0.08,0.12 -0.08,0.28 0,0.16 -0.12,0.32 l 0.04,0.12 q 0.04,0.04 0.08,0.04 0.08,-0.04 0.08,-0.08 0.36,-0.64 0.6,-1.44 z m 0.44,-4.32 q 0.08,-0.16 -0.12,-0.16 -0.04,0.12 -0.2,0.36 l 0,0.16 q 0.16,-0.12 0.32,-0.36 z m 1.6,-0.24 q 0.04,-0.12 0.04,-0.44 -0.16,0.12 -0.2,0.28 -0.04,0.12 -0.12,0.24 0.2,0.12 0.28,-0.08 z" />
      <path
         id="path4144"
         style=""
         d="m 87.126563,1031.3578 0,0.04 0,-0.04 z m 5.28,-4.76 q 0.08,0.12 0.16,0.16 0.12,0 0.2,0.04 -0.04,0.2 -0.2,0.24 -0.12,0.04 -0.2,0.2 -0.04,0.04 -0.08,0 -0.36,-0.08 -0.48,0.2 -0.12,-0.04 -0.12,-0.16 -0.04,-0.08 -0.08,-0.16 0,-0.08 -0.08,-0.16 -0.12,0 -0.24,0.04 -0.04,-0.16 -0.12,-0.4 -0.04,-0.28 -0.36,-0.4 -0.44,-0.16 -0.88,-0.2 -0.44,-0.08 -0.88,0 -0.44,0.08 -0.92,0.08 -0.44,-0.04 -0.92,-0.04 l -0.16,0 q -0.04,0 -0.16,0.12 0.12,0.04 0.2,0.08 0.12,0 0.24,0.04 l 0.72,0.12 q 0.16,0 0.4,0.08 0.04,0 0.12,0.12 -0.2,0.08 -0.36,0.08 -0.12,-0.04 -0.28,-0.08 -0.36,-0.12 -0.64,0.04 -0.2,0.12 -0.4,0.04 -0.28,0 -0.52,-0.04 -0.24,-0.08 -0.52,-0.04 -0.24,0 -0.52,0.2 -0.08,0.08 -0.2,0.12 -0.08,0 -0.16,0.08 -0.16,0.04 -0.28,0.28 -0.08,0.24 -0.36,0.32 -0.04,0.04 -0.08,0.04 0,0 -0.04,0.04 -0.16,0.2 0.12,0.32 0,0.08 -0.04,0.12 0,0.04 -0.08,0.04 -0.04,0 -0.04,0 0,-0.04 -0.04,-0.04 -0.12,-0.08 -0.2,0 -0.12,0.12 -0.2,0.28 0.04,0.12 0.08,0.12 0.08,-0.04 0.16,0 l 0,0.08 q -0.16,0.2 -0.24,0.44 -0.04,0.24 -0.12,0.48 -0.04,0.28 0.2,0.36 0.44,0.2 0.84,0.4 0.44,0.2 0.88,0.36 0.32,0.08 0.64,0.2 0.36,0.12 0.68,0.28 0.24,0.16 0.28,0.24 -0.2,-0.04 -0.36,-0.08 -0.16,-0.04 -0.36,-0.08 -0.16,-0.08 -0.32,-0.12 -0.12,-0.08 -0.32,-0.16 -0.16,-0.08 -0.28,-0.04 -0.2,0.08 -0.32,-0.08 -0.16,-0.12 -0.36,-0.12 0.08,0.12 0.16,0.16 0.12,0.04 0.16,0.24 -0.32,-0.16 -0.56,-0.4 -0.16,-0.24 -0.36,-0.2 -0.04,0 -0.08,-0.04 -0.04,-0.04 -0.12,-0.08 -0.08,-0.08 -0.16,-0.12 -0.08,-0.04 -0.24,-0.08 l 0,0.2 q 0,0.08 0.08,0.24 0,0.44 0.52,0.72 0.36,0.16 0.72,0.32 0.36,0.16 0.72,0.36 0.32,0.12 0.6,0.28 0.28,0.12 0.6,0.28 l 0.84,0.36 q 0.08,0 0.16,0.04 0,-0.08 -0.04,-0.12 0,-0.04 0,-0.12 0.08,0.04 0.2,0.08 0.12,0.04 0.2,0.08 0.2,0.52 0.6,0.68 0.08,0.2 0.2,0.32 0.16,0.08 0.32,0.16 0.08,0.04 0.08,0.24 l 0,0.24 q 0.12,-0.08 0.28,-0.16 0.16,0.16 0.16,0.24 0.04,0.04 0.08,0.28 0.2,0.12 0.32,0.24 0.16,0.08 0.36,0.2 0,-0.08 0.08,-0.24 0.08,-0.04 0.12,-0.04 0.04,0 0.12,-0.04 -0.04,-0.04 -0.04,-0.12 l 0,-0.04 0.12,0 q 0.04,0.08 0.12,0.32 -0.16,0.04 -0.32,0.16 l 0.24,0.36 -0.08,0 q 0,0.08 -0.04,0.12 0,0.04 0,0.08 0.04,0.2 0.08,0.24 0.04,0.04 0.28,-0.04 0,0.16 0.04,0.24 0.04,0.16 0.2,0.48 0.28,0.28 0.04,0.56 0.08,0.04 0.16,0.12 -0.04,0.2 -0.08,0.44 0,0.2 -0.04,0.44 0.08,0.04 0.24,0.2 0.04,-0.12 0.04,-0.2 -0.04,-0.08 -0.08,-0.12 -0.04,-0.04 -0.08,-0.12 l 0.24,-0.36 q 0.16,0.16 0.16,0.24 0.04,0.08 0.04,0.2 l 0,0.6 q 0,0.28 -0.12,0.36 -0.08,0.04 -0.16,0.2 -0.04,0.04 -0.2,0.12 -0.04,0.12 -0.04,0.36 -0.12,0.04 -0.28,0.12 -0.04,0.08 -0.04,0.08 0.08,0.2 0,0.32 -0.04,0.12 -0.08,0.24 0,0.08 -0.12,0.08 -0.24,0.12 -0.24,0.32 0,0.2 -0.12,0.32 -0.08,0.08 -0.2,0.16 -0.2,0.16 -0.4,0.28 -0.2,0.12 -0.4,0.24 -0.08,0.08 -0.16,0.12 -0.08,0.04 -0.24,0.2 -0.24,0.24 -0.36,0.32 -0.24,0.12 -0.44,0.24 -0.2,0.08 -0.4,0.28 -0.08,-0.08 -0.04,-0.16 0.08,-0.08 0.08,-0.16 -0.08,-0.08 -0.16,-0.24 l -0.12,0 q -0.32,0.08 -0.44,0.16 -0.04,0.08 -0.2,0.08 -0.08,0.08 -0.08,0.04 -0.24,0.04 -0.48,0.08 -0.2,0.04 -0.36,0.24 -0.08,0 -0.16,-0.04 -0.08,-0.08 -0.16,0 -0.08,0.08 -0.12,0.16 0,0.04 -0.04,0.12 0,0.12 -0.16,0.2 -0.12,0.08 -0.24,-0.04 l -0.04,0 q -0.2,-0.2 -0.28,-0.2 -0.04,0 -0.24,0.16 -0.2,0.2 -0.48,0.24 -0.04,-0.08 -0.04,-0.12 0,-0.04 -0.04,-0.08 -0.16,-0.04 -0.28,0.08 l -0.24,0.24 -0.12,-0.12 q -0.04,0 -0.08,0 0,0.04 -0.04,0.04 l -0.12,-0.24 q -0.2,-0.08 -0.28,0.16 -0.04,0.04 -0.12,0.32 -0.2,0 -0.44,0.12 0,-0.24 -0.04,-0.32 0,-0.12 -0.16,-0.12 -0.04,0 -0.04,0 0,0.04 -0.04,0.04 l -0.04,0 q -0.08,0.12 0.04,0.24 0,0.04 0.04,0.08 -0.04,0 -0.08,0.04 -0.04,0.04 -0.08,0.04 -0.24,-0.04 -0.48,-0.08 -0.2,0 -0.44,-0.04 -0.08,-0.04 -0.16,-0.08 -0.04,0 -0.12,-0.04 -0.84,-0.32 -1.52,-0.72 -0.64,-0.36 -1.12,-0.76 -0.48,-0.4 -0.88,-0.96 -0.08,-0.08 -0.08,-0.12 0,-0.08 -0.08,-0.12 -0.28,-0.24 -0.4,-0.52 -0.16,-0.28 -0.28,-0.6 -0.04,-0.08 -0.04,-0.08 -0.04,-0.2 -0.04,-0.4 -0.04,-0.2 0.16,-0.36 0.08,-0.08 0.08,-0.12 0,-0.08 0.04,-0.12 0.04,-0.08 0.08,-0.08 0.04,-0.04 0.08,-0.08 l 0.6,0.24 q 0,-0.2 -0.04,-0.32 -0.04,-0.12 -0.12,-0.24 -0.28,-0.4 -0.4,-0.84 -0.16,-0.44 -0.24,-0.88 0,-0.08 0,-0.16 -0.04,-0.12 0.04,-0.2 0.04,0 0.04,-0.08 -0.16,-0.08 -0.12,-0.2 0.04,-0.16 0,-0.28 -0.04,-0.12 0,-0.2 0.04,-0.12 0.08,-0.24 0.08,-0.12 0,-0.32 -0.04,-0.08 0,-0.2 0,-0.12 0,-0.2 l 0.24,-0.84 q 0.04,-0.08 0.08,-0.16 0,-0.12 0.12,-0.16 l 0.04,0 q 0.2,-0.36 0.64,-0.2 0.16,0.08 0.28,0.12 0.16,0 0.28,0.2 0.08,-0.08 0.12,-0.08 0.08,-0.04 0.16,-0.12 l 0.12,0.12 q 0.08,-0.04 0.08,-0.12 0,-0.08 0.08,-0.12 -0.04,0.24 -0.08,0.48 0,0.24 0,0.44 0,0.2 0,0.36 0,0.12 -0.04,0.32 0,0.12 -0.04,0.24 -0.04,0.12 0.04,0.24 0,0 0,0.16 -0.08,0.48 0.08,0.8 0.04,0.08 0.04,0.2 0,0.08 0.04,0.16 0,0.12 0,0.24 0,0.08 0.12,0.16 0.04,0 0.04,0.12 0.16,0.32 0.28,0.44 0.08,0.08 0.08,0.16 0.04,0.08 0.12,0.16 -0.08,0.08 -0.16,-0.04 l -0.28,-0.28 q -0.08,-0.08 -0.16,-0.12 0.04,0.52 0.32,0.92 0.2,0.32 0.4,0.64 0.2,0.32 0.48,0.6 l 0.24,0.24 q 0.16,0.08 0.24,0.24 0.04,0.08 0.04,0.12 0.04,0 0.08,0.08 0.2,0.32 0.56,0.32 0.32,0.04 0.56,0.08 0.28,0 0.56,0.08 0.2,0 0.28,0.12 -0.16,0.08 -0.32,0 -0.12,-0.08 -0.28,0 -0.12,0.08 -0.28,0 -0.12,-0.08 -0.28,0 0.08,0.16 0.32,0.24 0.12,0.04 0.2,0.08 0.12,0 0.24,0 l 1.36,0 q 0.2,0 0.52,-0.08 0.4,-0.2 0.76,-0.36 0.36,-0.2 0.72,-0.44 0.16,-0.08 0.28,-0.16 0.12,-0.12 0.28,-0.2 0,-0.2 -0.16,-0.12 -0.08,0 -0.16,0.08 -0.2,0.16 -0.4,0.2 -0.2,0.04 -0.4,0.08 -0.36,0.08 -0.72,0.12 -0.36,0 -0.72,0.08 -0.12,0 -0.12,0 -0.28,-0.08 -0.52,-0.04 -0.24,0.04 -0.52,0 l -0.2,0 q 0.08,-0.24 0.24,-0.2 l 0.2,0 q 1.32,0.08 2.6,-0.36 0.28,-0.08 0.52,-0.16 0.28,-0.12 0.52,-0.32 0.04,-0.04 0.08,-0.04 0.04,0 0.08,-0.04 0.2,-0.2 0.28,-0.28 0.08,-0.12 0,-0.52 -0.08,-0.24 -0.12,-0.44 -0.04,-0.24 -0.08,-0.48 0,-0.32 -0.24,-0.56 -0.12,-0.16 -0.24,-0.32 -0.12,-0.16 -0.16,-0.36 0,-0.08 -0.08,-0.08 -0.04,-0.04 -0.12,-0.12 -0.24,-0.16 -0.32,-0.32 -0.04,-0.08 -0.08,-0.08 -0.04,-0.04 -0.12,-0.12 -0.36,-0.16 -0.72,-0.48 -0.08,-0.08 -0.2,-0.12 -0.12,-0.04 -0.24,-0.12 -0.24,-0.16 -0.48,-0.28 -0.24,-0.12 -0.44,-0.28 -0.28,-0.2 -0.52,-0.36 -0.24,-0.16 -0.48,-0.32 -0.32,-0.24 -0.52,-0.32 -0.48,-0.28 -0.72,-0.56 -0.08,-0.08 -0.12,-0.12 -0.04,-0.04 -0.12,-0.08 -0.12,-0.08 -0.2,-0.16 -0.08,-0.12 -0.16,-0.2 -0.08,-0.12 -0.16,-0.24 -0.08,-0.16 -0.16,-0.28 -0.08,-0.08 -0.12,-0.2 0,-0.12 -0.08,-0.2 -0.2,-0.36 -0.28,-0.72 -0.08,-0.4 -0.08,-0.84 -0.04,-0.32 0,-0.6 0.08,-0.28 0.08,-0.6 0,-0.04 0,-0.08 0.04,-0.04 0.04,-0.12 0.2,-0.28 0.32,-0.52 0.16,-0.28 0.4,-0.48 0.04,-0.04 0.04,-0.04 0.04,0 0.08,-0.04 0.12,-0.24 0.28,-0.4 0.2,-0.16 0.4,-0.36 0.16,-0.2 0.28,-0.36 0.12,-0.16 0.24,-0.36 0.16,-0.24 0.28,-0.44 0.12,-0.24 0.36,-0.4 0.08,-0.2 0.2,-0.28 0.16,-0.12 0.28,-0.24 0.08,-0.08 0.16,-0.12 0.2,0 0.32,-0.12 0.16,-0.12 0.32,-0.2 0.28,-0.16 0.52,-0.32 0.24,-0.2 0.48,-0.36 0.16,-0.16 0.48,-0.24 0.28,-0.04 0.48,-0.16 0.24,-0.16 0.48,-0.28 0.04,-0.04 0.04,-0.12 0,-0.08 0.08,-0.16 0.2,-0.12 0.44,-0.16 0.28,-0.04 0.56,-0.12 0.28,-0.08 0.56,-0.04 0.28,0.04 0.56,0.12 0.52,0.12 0.92,0.28 0.2,0.12 0.36,0.04 0.08,-0.08 0.16,-0.04 0.08,0.04 0.16,0.04 0.16,0 0.16,0.2 0,0 0,0.12 0.28,0.2 0.56,0.32 0.32,0.12 0.52,0.44 -0.12,0.08 -0.28,0.16 0.04,0.2 0.04,0.36 0.04,0.12 0.08,0.28 l 0.24,0.12 q 0.36,0.28 0.4,0.56 0,0.08 0.08,0.24 0.08,0.16 0.24,0.16 0.08,0 0.08,0.16 -0.04,0.2 -0.12,0.36 -0.04,0.12 -0.12,0.32 0.08,0.04 0.12,0.04 0.04,0 0.08,0.04 0.16,0 0.24,0.08 z m -11.44,16.64 q 0.16,0 0.04,-0.12 0,-0.08 -0.12,-0.08 -0.16,-0.08 -0.48,-0.16 -0.08,-0.04 -0.2,-0.04 -0.08,0 -0.12,0 -0.16,0 -0.16,0 -0.04,0 -0.12,0.08 0.04,0 0.04,0.04 0,0.08 0.04,0.08 0.04,0 0.04,0.04 0.04,0 0.08,0 0.2,0.08 0.4,0.12 0.24,0 0.44,0.08 0.08,0 0.12,-0.04 z m 2.04,0 0,-0.04 -0.04,0 0,0.04 0.04,0 z m 8.08,-6.28 q -0.12,0.28 0.16,0.48 0.2,-0.32 0.16,-0.36 -0.08,-0.12 -0.08,-0.2 0.04,-0.12 -0.12,-0.2 -0.08,0.08 -0.08,0.16 0,0.04 -0.04,0.12 z m -2.72,5.64 q -0.04,0.12 0.04,0.16 l 0.08,0 q 0.12,-0.08 0.24,-0.16 0.16,-0.12 0.24,-0.2 0.04,0 0.04,-0.04 l 0.04,-0.04 0,-0.08 q -0.08,-0.04 -0.08,-0.04 -0.12,0.08 -0.28,0.16 -0.12,0.04 -0.24,0.12 -0.04,0.04 -0.04,0.08 0,0 -0.04,0.04 z m -2.36,-16.44 0,-0.04 0,0.04 z m 2.88,-0.48 q 0,-0.16 0.12,-0.16 0.16,0 0.12,-0.2 -0.24,-0.08 -0.4,-0.12 0.04,0.08 0.04,0.12 0.04,0.04 0.04,0.12 -0.04,0.04 -0.2,0.12 0.08,0.04 0.12,0.08 0.08,0 0.16,0.04 z m 0.72,-0.12 q 0.16,0.08 0.24,-0.12 -0.12,-0.08 -0.28,-0.04 l -0.04,0.08 q 0,0.08 0.08,0.08 z m 0.64,0.08 0,-0.04 q -0.04,-0.04 -0.04,-0.04 l -0.04,0.04 q 0.04,0.04 0.08,0.04 z m 0.72,-1.36 0,-0.04 -0.04,0 -0.04,0 q 0.04,0.04 0.08,0.04 z m -1.12,9.2 q -0.28,0 -0.32,-0.24 -0.04,-0.12 -0.12,-0.2 -0.08,-0.12 -0.04,-0.28 0,-0.16 -0.2,-0.08 -0.08,0.04 -0.12,0.08 0,0 -0.08,0.04 0.12,0.16 0.2,0.32 0.12,0.12 0.24,0.24 0.44,0.44 0.6,0.92 l 0.12,0.12 q -0.04,-0.2 -0.08,-0.4 0,-0.2 0.08,-0.4 -0.12,-0.12 -0.28,-0.12 z m -2.28,-1.16 q 0,-0.16 0.04,-0.28 l -0.48,-0.24 q -0.12,0.08 -0.12,0.12 -0.24,-0.08 -0.28,-0.12 -0.08,-0.04 -0.12,-0.08 0,-0.04 -0.08,-0.12 l -0.24,0.12 q 0.2,0.08 0.32,0.2 0.16,0.12 0.36,0.2 0.08,0.08 0.12,0.12 0.08,0 0.16,0.08 0.16,0.08 0.24,0.24 0.12,0.12 0.28,0.16 0.08,-0.2 -0.04,-0.24 -0.08,-0.08 -0.16,-0.16 z m 0.2,0.4 0.04,0 -0.04,0 z m 0.32,-0.92 -0.04,0.04 -0.08,0 q 0.32,0.32 0.56,0.48 0.24,0.16 0.32,0.2 -0.28,-0.56 -0.76,-0.72 z m 2.16,3.04 q 0.08,-0.12 0.16,-0.24 0.12,-0.12 0.2,-0.28 -0.08,0.04 -0.16,0.04 -0.08,0 -0.16,0.08 -0.16,0.16 -0.04,0.4 z m -3.2,8.28 q -0.12,0.08 -0.16,0.16 -0.04,0.04 -0.12,0.32 0.24,-0.08 0.32,-0.12 -0.04,-0.08 -0.12,-0.16 0.08,-0.12 0.08,-0.2 z m 0.72,-11.44 q -0.28,-0.32 -0.6,-0.28 0.32,0.2 0.36,0.24 0.08,0.04 0.24,0.04 z m -0.64,-0.32 q 0.04,0 0.04,0.04 -0.04,-0.04 -0.04,0 l 0,-0.04 z m 5.08,8.2 q -0.16,0 -0.24,0.08 -0.08,0.04 -0.16,0.12 -0.08,0.08 0.08,0.12 0.08,-0.08 0.16,-0.08 0.12,-0.04 0.16,-0.24 z m -6.24,-16.96 q -0.12,0.04 -0.24,0.08 -0.12,0.04 -0.24,0.08 -0.12,0.04 0,0.16 0.32,-0.24 0.48,-0.32 z m -2.2,18.36 q 0,0.04 -0.08,0.12 0.04,0 0.04,0.04 0.04,0 0.08,0 0.16,-0.08 0.24,-0.08 -0.08,-0.12 -0.16,-0.08 -0.04,0 -0.12,0 z m 1.16,-17.72 q 0,0 0.08,-0.16 -0.16,-0.04 -0.24,0.08 0,0.08 0.04,0.12 0.08,0 0.12,-0.04 z m 0.72,8.08 q 0.04,0.16 0.32,0.2 -0.16,-0.16 -0.2,-0.16 -0.04,-0.04 -0.12,-0.04 z m -0.96,9.52 q -0.08,0 -0.16,0 -0.04,-0.04 -0.08,-0.04 -0.04,0 -0.12,0.08 l 0,0.04 q 0.08,0 0.08,0.04 0.04,0 0.08,0 0.04,-0.04 0.08,-0.04 0.04,0 0.12,-0.08 z m -0.56,-17.16 q 0.04,-0.04 0.04,-0.04 0,-0.04 0.04,-0.08 -0.04,-0.04 -0.04,-0.04 l -0.04,0 q -0.08,0.08 -0.08,0.12 l 0,0.04 0.08,0 z m 7.12,-0.4 q -0.08,-0.12 -0.08,-0.12 l -0.12,0 q 0.04,0.04 0.04,0.08 0,0 0.04,0.04 l 0.12,0 z m -10.4,16.08 q 0,-0.16 -0.16,-0.16 0,0.16 0.16,0.16 z m 2.36,1.68 q 0.16,0.12 0.36,-0.04 -0.24,0 -0.36,0.04 z m 8.88,-1.08 q 0,0.04 0.04,0.04 0.04,-0.04 0.08,-0.04 -0.04,-0.08 -0.04,-0.08 0,0 -0.08,0.08 z m -11,0.28 q -0.08,0.04 -0.08,0.04 l 0.08,0.08 q 0,-0.04 0,-0.04 0.04,0 0.04,-0.04 l -0.04,-0.04 z m 6.32,3.16 q 0.08,0 0.08,0 0.04,-0.04 0.08,-0.04 -0.04,0 -0.04,0 0,-0.04 -0.04,-0.04 0,0 -0.08,0.08 z m -7.4,-5 -0.08,0 q 0.04,0.08 0.04,0.08 l 0.08,0 q -0.04,-0.08 -0.04,-0.08 z m 1.68,1.64 -0.04,0 q 0,0.08 0.04,0.08 0.04,0 0.04,-0.04 0,-0.04 -0.04,-0.04 z m 4.08,-13.24 q 0.16,-0.04 0.08,-0.2 0,0.08 -0.04,0.12 0,0 0,0.08 l -0.04,0 z m -4.24,13.6 -0.04,0 0.04,0 z m 0.6,0 0.04,0 -0.04,0 z m 4.12,-9 -0.04,0 0.04,0 z m 4.88,4.28 -0.08,0 0.08,0 z m -8.72,4.84 -0.04,-0.04 0,0.04 0,0.04 q 0.04,0 0.04,-0.04 z m 3.32,-13.72 0.04,0 0.04,0 -0.08,0 z m -2.12,-2.68 -0.04,0 0.04,0.04 0,-0.04 z m 2.48,-1.56 -0.08,0 -0.04,0.04 0.04,-0.04 0.08,0 z" />
    </g>
  </g>
</svg>
